<?xml version="1.0" standalone="no"?>
<!DOCTYPE svg PUBLIC "-//W3C//DTD SVG 1.1//EN" "http://www.w3.org/Graphics/SVG/1.1/DTD/svg11.dtd" >
<!--
2013-9-30: Created.
-->
<svg>
<metadata>
Created by iconfont
</metadata>
<defs>

<font id="iconfont" horiz-adv-x="1024" >
  <font-face
    font-family="iconfont"
    font-weight="500"
    font-stretch="normal"
    units-per-em="1024"
    ascent="896"
    descent="-128"
  />
    <missing-glyph />
    
    <glyph glyph-name="xuanzhong1" unicode="&#58979;" d="M510.98 831.476c-246.845 0-446.947-200.1-446.947-446.947 0-246.839 200.102-446.941 446.946-446.941 246.84 0 446.942 200.102 446.942 446.941 0 246.846-200.103 446.947-446.942 446.947z m-74.35-719.02L186.048 368.883l56.133 56.127 194.38-194.366L785.07 583.07l57.661-57.542-406.1-413.073z m0 0"  horiz-adv-x="1024" />

    
    <glyph glyph-name="xinpin" unicode="&#58980;" d="M866.127 114.884c56.887 74.84 90.67 168.199 90.67 269.456 0 246.161-199.552 445.713-445.714 445.713-246.16 0-445.713-199.55-445.713-445.713s199.553-445.715 445.713-445.715c94.159 0 181.493 29.196 253.452 79.03-0.152 0.053-0.293 0.117-0.445 0.17 7.296 5.881 11.97 14.885 11.97 24.984 0 17.715-14.355 32.069-32.07 32.069-9.684 0-18.36-4.3-24.243-11.087-0.016 0.053-0.04 0.102-0.054 0.156-59.877-38.892-131.32-61.49-208.039-61.49-211.22 0-382.447 171.228-382.447 382.452 0 211.218 171.228 382.447 382.447 382.447S894.1 596.127 894.1 384.91c0-86.747-28.884-166.744-77.553-230.906-6.588-5.873-10.741-14.424-10.741-23.943 0-17.709 14.354-32.069 32.069-32.069 8.243 0 15.76 3.116 21.444 8.23 0.005-0.025 0.016-0.045 0.019-0.07 0.084 0.103 0.16 0.206 0.244 0.308a32.314 32.314 0 0 1 6.545 8.425zM385.426 311.567h-25.818v83.281c0 30.099-10.99 45.148-32.968 45.148-11.386 0-20.744-4.236-28.069-12.71-7.328-8.474-10.99-19.198-10.99-32.174v-83.546h-25.95V458.004h25.95v-24.23h0.53c11.033 18.448 27.054 27.673 48.062 27.673 16.064 0 28.289-5.143 36.676-15.424 8.384-10.285 12.577-25.269 12.577-44.951v-89.505zM548.016 378.165H445.537c0.44-15.624 4.72-27.695 12.843-36.212 8.12-8.52 19.463-12.776 34.028-12.776 16.417 0 31.464 5.251 45.148 15.756v-23.17c-12.887-9.093-29.968-13.638-51.239-13.638-21.184 0-37.714 6.707-49.584 20.125-11.873 13.417-17.808 32.042-17.808 55.875 0 22.418 6.508 40.91 19.53 55.475 13.018 14.564 29.195 21.847 48.525 21.847 19.152 0 34.114-6.157 44.885-18.47 10.769-12.313 16.154-29.548 16.154-51.703v-13.109z m-25.952 20.788c-0.088 13.24-3.222 23.478-9.399 30.717-6.18 7.237-14.875 10.857-26.084 10.857-10.327 0-19.265-3.839-26.812-11.519-7.546-7.68-12.293-17.699-14.233-30.055h76.528zM770.185 458.004l-43.692-146.436h-27.009l-29.128 102.743c-1.238 4.414-2.033 9.09-2.384 14.036h-0.53c-0.264-3.708-1.28-8.298-3.045-13.77l-31.51-103.009H606.67l-43.957 146.436h27.01l29.26-108.57c0.883-3.266 1.544-7.724 1.987-13.37h1.059c0.35 4.853 1.191 9.442 2.515 13.769l31.512 108.171h23.965l30.717-108.701c0.881-3.179 1.589-7.68 2.119-13.506h1.192c0.176 3.884 0.97 8.385 2.383 13.506l28.598 108.701h25.155z"  horiz-adv-x="1024" />

    
    <glyph glyph-name="yinhangka" unicode="&#58981;" d="M921.7 741.1c28.2 0 51.2-23 51.2-51.2v-612c0-28.2-23-51.2-51.2-51.2H102.5c-28.2 0-51.2 23-51.2 51.2v612c0 28.2 23 51.2 51.2 51.2h819.2m0 51.2H102.5C46 792.3 0.1 746.4 0.1 689.9v-612c0-56.6 45.8-102.4 102.4-102.4h819.2c56.6 0 102.4 45.8 102.4 102.4v612c0 56.5-45.8 102.4-102.4 102.4zM925.8 638.7h-88.4l-76.8-204.8H849l76.8 204.8zM177.2 485.1H126v-51.2h51.2v51.2z m102.4 0h-51.2v-51.2h51.2v51.2z m696.7-269.6H46.6v-51.2h929.7v51.2zM382 485.1h-51.2v-51.2H382v51.2z m284.7 153.6h-51.2l-76.8-204.8h51.2l76.8 204.8z m100.6 0h-51.2l-76.8-204.8h51.2l76.8 204.8z"  horiz-adv-x="1024" />

    
    <glyph glyph-name="yonghu" unicode="&#58982;" d="M910.317 329.387c135.68 0.094 245.665 110.08 245.665 245.76s-109.985 245.76-245.76 245.76-245.76-110.08-245.76-245.76 109.985-245.666 245.665-245.76C699.07 329.292 527.93 158.15 527.93-52.907h764.587c0 211.058-171.046 382.199-382.199 382.294z"  horiz-adv-x="1820" />

    
    <glyph glyph-name="yingyongchengxu-xianxing" unicode="&#58983;" d="M416 704v-224H192V704h224m48 64H144c-8.8 0-16-7.2-16-16v-320c0-8.8 7.2-16 16-16h320c8.8 0 16 7.2 16 16V752c0 8.8-7.2 16-16 16z m-48-480v-224H192V288h224m48 64H144c-8.8 0-16-7.2-16-16v-320c0-8.8 7.2-16 16-16h320c8.8 0 16 7.2 16 16V336c0 8.8-7.2 16-16 16z m368 352v-224H608V704h224m48 64H560c-8.8 0-16-7.2-16-16v-320c0-8.8 7.2-16 16-16h320c8.8 0 16 7.2 16 16V752c0 8.8-7.2 16-16 16z m-48-480v-224H608V288h224m48 64H560c-8.8 0-16-7.2-16-16v-320c0-8.8 7.2-16 16-16h320c8.8 0 16 7.2 16 16V336c0 8.8-7.2 16-16 16z"  horiz-adv-x="1024" />

    
    <glyph glyph-name="yonghu1" unicode="&#58984;" d="M511.113 207.577a343.768 343.768 0 1 0 343.7 343.768 344.246 344.246 0 0 0-343.7-343.768z m0 620.98a275.37 275.37 0 1 1 275.369-275.37 275.37 275.37 0 0 1-275.37 275.78v-0.41zM69.115-127.932h-3.208A33.448 33.448 0 0 0 35.6-91.685a481.93 481.93 0 0 0 298.783 410.256 33.448 33.448 0 0 0 27.1-60.958 413.054 413.054 0 0 1-259.328-355.236 33.448 33.448 0 0 0-33.039-30.309z m884.404 0a33.448 33.448 0 0 0-33.038 30.309 413.054 413.054 0 0 1-156.048 288.202 33.926 33.926 0 0 0 45.872 50.036 472.715 472.715 0 0 0 178.096-332.3 33.448 33.448 0 0 0-30.308-36.247h-4.574z"  horiz-adv-x="1024" />

    
    <glyph glyph-name="yonghu-xianxing" unicode="&#58985;" d="M858.5 132.4c-18.9 44.8-46.1 85-80.6 119.5-34.5 34.5-74.7 61.6-119.5 80.6-0.4 0.2-0.8 0.3-1.2 0.5C719.5 378 760 451.3 760 534c0 137-111 248-248 248S264 671 264 534c0-82.7 40.5-156 102.8-201.1-0.4-0.2-0.8-0.3-1.2-0.5-44.8-18.9-85-46-119.5-80.6-34.5-34.5-61.6-74.7-80.6-119.5C146.9 88.5 137 42 136-5.8c-0.1-4.5 3.5-8.2 8-8.2h60c4.4 0 7.9 3.5 8 7.8 2 77.2 33 149.5 87.8 204.3 56.7 56.7 132 87.9 212.2 87.9s155.5-31.2 212.2-87.9C779 143.3 810 71 812-6.2c0.1-4.4 3.6-7.8 8-7.8h60c4.5 0 8.1 3.7 8 8.2-1 47.8-10.9 94.3-29.5 138.2zM512 362c-45.9 0-89.1 17.9-121.6 50.4S340 488.1 340 534c0 45.9 17.9 89.1 50.4 121.6S466.1 706 512 706s89.1-17.9 121.6-50.4S684 579.9 684 534c0-45.9-17.9-89.1-50.4-121.6S557.9 362 512 362z"  horiz-adv-x="1024" />

    
    <glyph glyph-name="xuanzhong" unicode="&#58986;" d="M512 885.82c-276.965 0-501.492-225.086-501.492-502.742S235.035-119.665 512-119.665s501.492 225.086 501.492 502.743S788.965 885.82 512 885.82z m263.69-359.265L442.761 159.343a40.96 40.96 0 0 0-59.343-1.418L225.02 316.717c-15.977 16.015-15.944 41.951 0.072 57.928 16.015 15.97 41.949 15.943 57.925-0.072L411 246.272l304.003 335.307c15.196 16.759 41.1 18.026 57.856 2.832 16.759-15.194 18.028-41.097 2.832-57.856z"  horiz-adv-x="1024" />

    
    <glyph glyph-name="zhuangshixian" unicode="&#58987;" d="M904 420H120c-4.4 0-8-3.6-8-8v-56c0-4.4 3.6-8 8-8h784c4.4 0 8 3.6 8 8v56c0 4.4-3.6 8-8 8z"  horiz-adv-x="1024" />

    
    <glyph glyph-name="tuikuanzhong" unicode="&#58988;" d="M467.782-104.727C209.455-104.727 0 114.036 0 384S209.455 872.727 467.782 872.727c260.654 0 460.8-193.163 465.454-446.836v-13.964l37.237 69.818c6.982 6.982 13.963 9.31 23.272 9.31 6.982 0 16.291-4.655 23.273-11.637 11.637-13.963 9.31-34.909 2.327-46.545L930.91 288.582c-9.309-4.655-16.29-6.982-23.273-6.982-9.309 0-18.618 2.327-23.272 9.31L768 411.926c-6.982 6.982-9.31 13.964-9.31 23.273s2.328 18.618 9.31 23.273c4.655 4.654 13.964 9.309 20.945 9.309 6.982 0 16.291-4.655 23.273-11.637l53.527-58.181v9.309C854.11 630.69 677.236 805.236 465.455 805.236 244.364 805.236 65.164 616.727 65.164 384c0-111.71 41.89-216.436 116.363-295.564C256 9.31 356.073-34.909 463.127-34.909h4.655c90.763 0 181.527 32.582 253.673 95.418 4.654 4.655 11.636 6.982 18.618 6.982 11.636 0 18.618-4.655 25.6-13.964 11.636-16.29 9.309-37.236-4.655-48.872-83.782-72.146-186.182-109.382-293.236-109.382zM642.327 351.418c20.946 0 37.237 16.291 37.237 37.237 0 20.945-16.291 37.236-37.237 37.236H542.255l76.8 107.054c11.636 16.291 6.981 39.564-9.31 51.2-6.981 4.655-13.963 6.982-20.945 6.982-11.636 0-23.273-4.654-30.255-16.29L470.11 449.163 384 574.836c-6.982 9.31-18.618 16.291-30.255 16.291-6.981 0-13.963-2.327-20.945-6.982-16.29-11.636-20.945-34.909-9.31-51.2l76.8-107.054h-97.745c-20.945 0-37.236-16.291-37.236-37.236 0-20.946 16.291-37.237 37.236-37.237H435.2v-51.2h-76.8c-20.945 0-37.236-16.29-37.236-37.236 0-20.946 16.29-37.237 37.236-37.237h76.8v-74.472c0-20.946 16.29-37.237 37.236-37.237 20.946 0 37.237 16.291 37.237 37.237v76.8h76.8c20.945 0 37.236 16.29 37.236 37.236 0 20.946-16.29 37.236-37.236 37.236h-76.8v51.2h132.654z"  horiz-adv-x="1025" />

    
    <glyph glyph-name="yuandianxiao" unicode="&#58989;" d="M563.8-1.974a391.66 391.66 0 1 0 337.017 337.332A391.975 391.975 0 0 0 563.8-1.974z m4.738 711.936a328.489 328.489 0 1 1 268.16-267.845 328.804 328.804 0 0 1-268.16 267.845zM555.588 203.963A187.302 187.302 0 0 0 330.7 429.167 185.407 185.407 0 0 0 469.99 568.46a187.302 187.302 0 0 0 85.597-364.496z m-9.16 301.64A124.13 124.13 0 0 1 393.555 352.73a121.92 121.92 0 0 1 85.596-85.912 124.13 124.13 0 0 1 152.558 153.19 121.92 121.92 0 0 1-85.28 85.596zM487.363 896h49.59a21.162 21.162 0 0 0 21.162-21.162v-105.18H466.2V874.838A21.162 21.162 0 0 0 487.363 896z m-22.11-896.079h92.862v-106.443a21.162 21.162 0 0 0-21.163-21.162h-50.536a21.162 21.162 0 0 0-21.162 21.162V-0.079z m-340.49 433.036v-93.177h-103.6A21.162 21.162 0 0 0 0 360.943v50.536a21.162 21.162 0 0 0 21.162 21.163h103.6v0.315zM1024 411.48v-50.536a21.162 21.162 0 0 0-21.162-21.163h-103.6v91.914h103.284A21.162 21.162 0 0 0 1024 411.479z"  horiz-adv-x="1024" />

    
    <glyph glyph-name="youhuiquan" unicode="&#58990;" d="M64 896v-1012.8l116.992 116.992 108.544-108.544L398.08 0.192l110.176-110.176 110.112 110.112 106.912-106.912 106.976 106.976L960-127.552V896H64z m579.232-460.288v-49.088H553.6v-42.4h89.632v-49.088H553.6V224h-84.8v71.136h-92.576v49.088H468.8v42.4h-92.576v49.088h75.904L352 608h89.344l73.184-154.432h1.088c2.368 5.76 6.016 14.112 11.04 25.024L587.232 608H672L568.928 435.712h74.304zM64-128h3.136L64-124.864z"  horiz-adv-x="1024" />

    
    <glyph glyph-name="ziyuan-xianxing" unicode="&#58991;" d="M341.519 877.587H92.607A92.715 92.715 0 0 1 0 784.98v-248.912a92.715 92.715 0 0 1 92.607-92.607h248.912a92.715 92.715 0 0 1 92.607 92.607V784.98a92.7 92.7 0 0 1-92.607 92.607z m30.869-341.52a30.869 30.869 0 0 0-30.869-30.868H92.607a30.869 30.869 0 0 0-30.87 30.869V784.98a30.869 30.869 0 0 0 30.87 30.869h248.912a30.869 30.869 0 0 0 30.869-30.869z m-30.869-229.942H92.607A92.715 92.715 0 0 1 0 213.518v-248.912A92.715 92.715 0 0 1 92.607-128h248.912a92.7 92.7 0 0 1 92.607 92.607V213.52a92.715 92.715 0 0 1-92.607 92.607z m30.869-341.519a30.869 30.869 0 0 0-30.869-30.869H92.607a30.869 30.869 0 0 0-30.87 30.869V213.519a30.869 30.869 0 0 0 30.87 30.869h248.912a30.869 30.869 0 0 0 30.869-30.869z m311.606 511.005a172.65 172.65 0 0 1 244.127 0l62.85 62.85a172.866 172.866 0 0 1 0 244.141l-62.85 62.834a172.619 172.619 0 0 1-244.127 0l-62.85-62.834a172.866 172.866 0 0 1 0-244.142z m-19.185 263.328l62.849 62.91a110.897 110.897 0 0 0 156.814 0L947.322 739a110.897 110.897 0 0 0 0-156.814l-62.85-62.849a110.897 110.897 0 0 0-156.814 0l-62.85 62.85a110.897 110.897 0 0 0 0 156.814z m265.704-432.814H681.602a92.715 92.715 0 0 1-92.607-92.607v-248.912A92.715 92.715 0 0 1 681.602-128h248.912a92.7 92.7 0 0 1 92.607 92.607V213.52a92.715 92.715 0 0 1-92.607 92.607z m30.869-341.519a30.869 30.869 0 0 0-30.869-30.869H681.602a30.869 30.869 0 0 0-30.869 30.869V213.519a30.869 30.869 0 0 0 30.869 30.869h248.912a30.869 30.869 0 0 0 30.869-30.869z"  horiz-adv-x="1041" />

    
    <glyph glyph-name="ziyuan" unicode="&#58992;" d="M756.87 640a55.652 55.652 0 1 1 55.652 55.652A55.652 55.652 0 0 1 756.87 640zM200.348 339.478v-61.217a50.087 50.087 0 0 1 50.087-50.087h617.739L655.36 437.426a44.522 44.522 0 0 1-64.111 0l-44.522-44.522-113.53 111.305a49.197 49.197 0 0 1-66.783 0zM0-38.957A89.043 89.043 0 0 1 89.043-128h890.435a89.043 89.043 0 0 1 89.044 89.043V806.957A89.043 89.043 0 0 1 979.478 896H89.043A89.043 89.043 0 0 1 0 806.957z m160.278 823.653h747.965a48.751 48.751 0 0 0 48.974-48.974v-547.618a48.751 48.751 0 0 0-48.974-48.974H160.278a48.751 48.751 0 0 0-48.974 48.974V735.722a48.751 48.751 0 0 0 48.974 48.974z"  horiz-adv-x="1068" />

    
    <glyph glyph-name="zhongzhi" unicode="&#58993;" d="M960.8 381c-0.2 11.7-5.5 23.2-15.4 30.9-17.5 13.7-42.8 10.7-56.6-6.8-5.7-7.3-8.5-15.8-8.6-24.4h-0.4c-0.6-78.3-26.1-157-78-223.3-124.9-159.2-356-187.1-515.2-62.3S99.4 451 224.3 610.2c124.9 159.2 356 187.1 515.2 62.3 29.6-23.2 54.6-50.1 75-79.5H741c-22.4 0-40.7-18.3-40.7-40.7v-3c0-22.4 18.3-40.7 40.7-40.7h177.3c22.4 0 40.7 18.3 40.7 40.7V726.7c0 22.4-18.3 40.7-40.7 40.7h-3c-22.4 0-40.7-18.3-40.7-40.7v-78.5c-24.1 32.9-52.6 62.4-85.2 88-47.6 37.3-101 64.2-158.9 79.9C574.6 831.2 517 835.3 459.3 828.4c-57.7-7-112.7-24.7-163.3-52.8-52.5-29-98-67.9-135.3-115.4-37.3-47.6-64.2-101-79.9-158.9-15.2-55.9-19.3-113.5-12.3-171.2 7-57.7 24.7-112.7 52.8-163.3 29-52.5 67.9-98 115.4-135.3 47.6-37.3 101-64.2 158.9-79.9 55.9-15.2 113.5-19.3 171.2-12.3 57.7 7 112.7 24.7 163.3 52.8 52.5 29 98 67.9 135.3 115.4 37.3 47.6 64.2 101 79.9 158.9 10.2 37.5 15.4 75.9 15.5 114.6z"  horiz-adv-x="1024" />

    
    <glyph glyph-name="yingyongchengxu" unicode="&#58994;" d="M464 416H144c-8.8 0-16 7.2-16 16V752c0 8.8 7.2 16 16 16h320c8.8 0 16-7.2 16-16v-320c0-8.8-7.2-16-16-16z m16-400V336c0 8.8-7.2 16-16 16H144c-8.8 0-16-7.2-16-16v-320c0-8.8 7.2-16 16-16h320c8.8 0 16 7.2 16 16z m352 688H608v-224h224V704m48 64c8.8 0 16-7.2 16-16v-320c0-8.8-7.2-16-16-16H560c-8.8 0-16 7.2-16 16V752c0 8.8 7.2 16 16 16h320z m16-752V336c0 8.8-7.2 16-16 16H560c-8.8 0-16-7.2-16-16v-320c0-8.8 7.2-16 16-16h320c8.8 0 16 7.2 16 16z"  horiz-adv-x="1024" />

    
    <glyph glyph-name="_zhekou" unicode="&#58884;" d="M128 446.208c0-12.373 9.003-34.133 17.707-42.837l428.33-428.331c-0.042 0.021 346.838 346.795 346.838 346.795L492.629 750.293c-8.618 8.64-30.528 17.707-42.837 17.707H128.149L128 446.208zM85.333 767.851c0 23.637 19.094 42.816 42.816 42.816h321.643c23.637 0 56.405-13.59 73.024-30.208l428.31-428.31c16.682-16.682 16.64-43.754-0.065-60.48l-346.73-346.73a42.816 42.816 0 0 0-60.48-0.064L115.54 373.184c-16.682 16.683-30.208 49.301-30.208 73.024V767.851zM320 469.333a106.667 106.667 0 1 0 0 213.334 106.667 106.667 0 0 0 0-213.334zM320 512a64 64 0 1 1 0 128 64 64 0 0 1 0-128z"  horiz-adv-x="1024" />

    
    <glyph glyph-name="guanbi2" unicode="&#58885;" d="M512-128C229.376-128 0 101.376 0 384S229.376 896 512 896s512-229.376 512-512-229.376-512-512-512z m0 975.36C257.024 847.36 48.64 638.976 48.64 384c0-254.976 207.872-463.36 463.36-463.36S975.36 128.512 975.36 384 766.976 847.36 512 847.36zM548.864 384l195.072 195.072c9.728 9.728 9.728 25.6 0 36.864l-1.536 1.536c-9.728 9.728-25.6 9.728-35.328 0L512 420.864 316.928 615.936c-9.728 9.728-25.6 9.728-35.328 0l-1.536-1.536c-9.728-9.728-9.728-25.6 0-36.864L475.136 384 280.064 188.928c-9.728-9.728-9.728-25.6 0-36.864l1.536-1.536c9.728-9.728 25.6-9.728 35.328 0L512 347.136l195.072-195.072c9.728-9.728 25.6-9.728 35.328 0l1.536 1.536c9.728 9.728 9.728 25.6 0 36.864L548.864 384z"  horiz-adv-x="1024" />

    
    <glyph glyph-name="icon25201" unicode="&#58886;" d="M127.431 440.889a40.96 40.96 0 0 1 0-36.409 427.236 427.236 0 0 1 365.796-248.036L158.72 491.52a444.302 444.302 0 0 1-31.289-50.631z m766.293 5.689C853.334 512 732.73 687.218 512 687.218a401.067 401.067 0 0 1-223.573-66.56l-80.783 80.782-64.284-64.284 74.524-74.525 100.694-102.4 233.244-231.538 60.871-61.44 101.263-101.262 64.284 64.285-72.249 72.248a455.111 455.111 0 0 1 189.44 193.423 52.338 52.338 0 0 1-1.707 50.63z m-255.43-176.356l-64.854 65.422a105.813 105.813 0 1 1-147.911 147.912l-64.853 64.853a197.404 197.404 0 1 0 277.617-278.187z"  horiz-adv-x="1024" />

    
    <glyph glyph-name="cuxiaoguanli" unicode="&#58887;" d="M512 782.05c218.927 0 398.05-179.123 398.05-398.05 0-218.927-179.123-398.05-398.05-398.05-218.927 0-398.05 179.123-398.05 398.05 0 218.927 179.123 398.05 398.05 398.05z m0 49.756C265.707 831.806 64.194 630.293 64.194 384c0-246.293 201.513-447.806 447.806-447.806 246.293 0 447.806 201.513 447.806 447.806 0 246.293-201.513 447.806-447.806 447.806zM686.147 304.39H536.878v99.512h149.269c12.439 0 24.878 12.44 24.878 24.879 0 14.926-12.44 24.878-24.878 24.878h-114.44l124.39 124.39c9.952 9.951 9.952 24.878 0 34.83-9.95 9.95-24.877 9.95-34.828 0L512 463.608 362.731 612.88c-9.95 9.95-24.878 9.95-34.829 0-9.951-9.952-9.951-24.879 0-34.83l124.39-124.39H337.854c-12.439 0-24.878-9.952-24.878-24.878 0-12.44 12.44-24.879 24.878-24.879h149.269v-99.512h-149.27c-12.439 0-24.878-12.439-24.878-24.878s12.44-24.878 24.878-24.878h149.269v-124.39c0-12.44 12.439-24.879 24.878-24.879s24.878 12.44 24.878 24.878v124.39h149.269c12.439 0 24.878 12.44 24.878 24.879 0 12.44-12.44 24.878-24.878 24.878z"  horiz-adv-x="1024" />

    
    <glyph glyph-name="complete" unicode="&#58888;" d="M512-128C229.679-128 0 101.679 0 384 0 666.298 229.679 896 512 896s512-229.702 512-512c0-282.321-229.679-512-512-512z m0 979.48C254.231 851.48 44.52 641.768 44.52 384S254.232-83.503 512-83.503 979.48 126.231 979.48 384 769.768 851.48 512 851.48zM460.614 215.25c-4.515 0-9.077 1.326-13.103 4.049L256.42 349.673c-10.636 7.26-13.359 21.736-6.12 32.349 7.26 10.612 21.736 13.358 32.348 6.12L473.74 257.77c10.635-7.261 13.358-21.737 6.12-32.35-4.515-6.632-11.822-10.17-19.246-10.17zM460.637 215.25c-5.934 0-11.892 2.257-16.43 6.795-9.1 9.076-9.123 23.785-0.047 32.908l293.818 294.819c9.053 9.1 23.762 9.146 32.908 0.046 9.1-9.076 9.146-23.808 0.046-32.93L477.114 222.091a23.19 23.19 0 0 0-16.477-6.843z"  horiz-adv-x="1024" />

    
    <glyph glyph-name="icon34" unicode="&#58889;" d="M727.104 832a19.2 19.2 0 0 0 9.984-2.56l8.384-4.608 270.08-227.136c2.496-2.176 4.608-4.8 6.272-7.68l2.048-4.608v-9.6l0.128-2.368-0.128-2.432v-663.04c0-17.856-13.056-32.64-30.144-35.456l-5.824-0.512H99.84a36.032 36.032 0 0 0-35.264 30.208l-0.448 5.76V572.8a30.016 30.016 0 0 0 6.272 21.12l3.904 4.096L341.632 824.832c8.512 6.016 9.92 7.04 15.68 7.168h369.792z m236.8-284.992H123.84v-615.04h840v615.04zM674.432 384c16.32 0 29.568-28.608 29.568-64 0-35.328-13.248-64-29.568-64H349.568C333.248 256 320 284.672 320 320c0 35.392 13.248 64 29.568 64h324.864z m38.016 388.032H573.824v-166.208h335.168l-196.48 166.208z m-198.592 0H372.224L177.536 607.04h336.32V772.032z"  horiz-adv-x="1024" />

    
    <glyph glyph-name="iconfontguanbi" unicode="&#58890;" d="M828.77 747.285C641.295 916.9 354.185 915.591 168.247 743.37c-212.063-196.418-212.063-522.33 0-718.748 185.938-172.222 473.048-173.52 660.525-3.916 219.435 198.536 219.435 528.054 0 726.58zM706.89 177.642c-11.709-11.709-30.68-11.709-42.389 0L502.73 339.414a1.7 1.7 0 0 1-2.398 0L338.61 177.68c-11.708-11.708-30.68-11.708-42.388 0l-0.04 0.04c-11.709 11.709-11.709 30.68 0 42.389l161.732 161.732a1.7 1.7 0 0 1 0 2.398L296.14 545.992c-11.709 11.708-11.709 30.68 0 42.388l0.04 0.04c11.708 11.709 30.68 11.709 42.388 0l161.772-161.772a1.7 1.7 0 0 1 2.398 0L664.551 588.46c11.709 11.709 30.68 11.709 42.389 0l0.04-0.04c11.708-11.708 11.708-30.68 0-42.388L545.158 384.23a1.7 1.7 0 0 1 0-2.398L706.92 220.06c11.708-11.708 11.708-30.68 0-42.389l-0.03-0.03z"  horiz-adv-x="1024" />

    
    <glyph glyph-name="icon-tset" unicode="&#58891;" d="M974.933 590.933l-234.666 256c-4.267 4.267-8.534 6.4-14.934 6.4-6.4 0-10.666-2.133-14.933-6.4l-234.667-256c-4.266-4.266-6.4-8.533-6.4-14.933 0-12.8 8.534-21.333 21.334-21.333H595.2c-2.133-44.8-14.933-157.867-66.133-281.6C441.6 64 283.733-42.667 64-42.667c-12.8 0-21.333-8.533-21.333-21.333 0-12.8 8.533-21.333 21.333-21.333 699.733 0 780.8 526.933 789.333 640H960c12.8 0 21.333 8.533 21.333 21.333 0 6.4-2.133 10.667-6.4 14.933zM832 597.333c-12.8 0-21.333-8.533-21.333-21.333v-21.333C804.267 460.8 755.2 123.733 366.933 0 601.6 157.867 635.733 467.2 640 554.667V576c0 12.8-8.533 21.333-21.333 21.333h-78.934L725.333 800l185.6-202.667H832z"  horiz-adv-x="1024" />

    
    <glyph glyph-name="tupianpailie" unicode="&#58892;" d="M460.2 736.4H175.4c-8.8 0-16-7.2-16-16v-397.2c0-8.8 7.2-16 16-16h284.8c8.8 0 16 7.2 16 16V720.4c0 8.8-7.2 16-16 16z m-48.1-365.2H223.4V672.3h188.8v-301.1z m435.8 365.2H563c-8.8 0-16-7.2-16-16v-190.6c0-8.8 7.2-16 16-16h284.8c8.8 0 16 7.2 16 16V720.4c0.1 8.8-7.1 16-15.9 16z m-48.1-158.6H611.1v94.6h188.8v-94.6zM460.2 254.6H175.4c-8.8 0-16-7.2-16-16V48c0-8.8 7.2-16 16-16h284.8c8.8 0 16 7.2 16 16V238.6c0 8.8-7.2 16-16 16zM412.1 96H223.4v94.6h188.8V96z m435.8 365.2H563c-8.8 0-16-7.2-16-16V48c0-8.8 7.2-16 16-16h284.8c8.8 0 16 7.2 16 16V445.2c0.1 8.8-7.1 16-15.9 16zM799.8 96H611.1V397.2h188.8V96z"  horiz-adv-x="1024" />

    
    <glyph glyph-name="arrow" unicode="&#58893;" d="M539.845-76.8L922.15 303.537a66.56 66.56 0 0 1 23.08 41.078 41.118 41.118 0 0 1-39.385 41.275H669.538V812.74a43.047 43.047 0 0 1-39.384 43.324H393.846a43.047 43.047 0 0 1-39.384-43.323v-426.772H118.154a41.118 41.118 0 0 1-39.385-41.354 63.015 63.015 0 0 1 23.08-40.25l382.306-380.85a39.385 39.385 0 0 1 55.69-0.315zM213.228 307.751h220.003V777.846h157.538v-470.252h220.003L512 10.398z"  horiz-adv-x="1024" />

    
    <glyph glyph-name="2" unicode="&#58894;" d="M511.052-120.091c-162.58 0-294.856 132.276-294.856 294.856 0 92.651 44.417 181.01 118.822 236.406 15.876 11.822 38.414 8.557 50.288-7.372 11.848-15.929 8.557-38.44-7.372-50.288-56.265-41.889-89.86-108.711-89.86-178.72 0-122.929 100.023-222.952 222.952-222.952s222.952 100.023 222.952 222.952c0 70.14-33.675 136.936-90.044 178.668-15.956 11.821-19.326 34.332-7.504 50.288 11.821 15.981 34.359 19.299 50.288 7.503 74.642-55.238 119.19-143.623 119.19-236.459 0-162.606-132.25-294.882-294.856-294.882zM665.339 346.376c-19.852 0-35.965 16.087-35.965 35.965V700.077c0 31.41-12.401 61.136-34.939 83.673-22.353 22.353-51.973 34.675-83.383 34.675-65.4 0-118.611-53.079-118.611-118.322v-317.762c0-19.852-16.087-35.965-35.965-35.965-19.852 0-35.965 16.087-35.965 35.965V700.077c0 104.894 85.463 190.226 190.515 190.226 50.63 0 98.312-19.8 134.224-55.738 36.123-36.124 56.001-83.884 56.001-134.514v-317.762c0.027-19.826-16.06-35.913-35.912-35.913zM432.882 179.215a86.358 86.358 0 1 1 172.717 0 86.358 86.358 0 1 1-172.717 0zM646.566 446.873H493.412c-19.852 0-35.965 16.087-35.965 35.965s16.087 35.965 35.965 35.965h153.154c19.852 0 35.966-16.086 35.966-35.965s-16.114-35.965-35.966-35.965z m0 169.768H493.412c-19.852 0-35.965 16.087-35.965 35.965 0 19.852 16.087 35.965 35.965 35.965h153.154c19.852 0 35.966-16.086 35.966-35.965-0.027-19.878-16.114-35.965-35.966-35.965z"  horiz-adv-x="1024" />

    
    <glyph glyph-name="sousuo2" unicode="&#58895;" d="M822.4-23.104c-27.136 0-47.488 6.784-61.056 27.136l-94.4 88.832a27.968 27.968 0 0 0-0.64 40.064l0.064 0.064a27.968 27.968 0 0 0 40.064-0.64l88.832-94.4c13.568-13.568 33.92-13.568 47.488 0a32.768 32.768 0 0 1 0 47.488l-89.216 94.848a29.056 29.056 0 0 0 0.576 40.448h0.064a29.44 29.44 0 0 0 41.536 0l94.528-94.592c33.984-33.92 33.984-88.192 0-122.112-20.352-20.352-40.704-27.136-67.84-27.136z m-379.968 135.68c-88.192 0-176.384 33.92-237.44 101.824-128.96 128.896-128.96 345.984 0 481.728 61.056 61.056 142.464 94.976 237.44 94.976 88.256 0 176.448-33.92 237.504-101.76 128.896-128.96 128.896-346.048 0-481.728-67.84-61.12-149.248-95.04-237.504-95.04z m0 624.256c-81.408 0-149.248-27.136-203.52-81.408a295.168 295.168 0 0 1 0-407.104c54.272-47.488 122.112-81.472 203.52-81.472 74.688 0 149.312 27.2 196.8 81.472 108.544 108.544 108.544 291.712 0 400.32-54.272 61.056-122.112 88.192-196.8 88.192z"  horiz-adv-x="1024" />

    
    <glyph glyph-name="didiandingwei_o" unicode="&#58896;" d="M768 42.667V128h-85.333l42.666 42.667h85.334V0H256V170.667h85.333L384 128h-85.333v-85.333H768zM708.267 332.8C746.667 375.467 768 430.933 768 490.667c0 128-106.667 234.666-234.667 234.666S298.667 618.667 298.667 490.667c0-59.734 21.333-115.2 59.733-157.867l174.933-174.933L708.267 332.8z m17.066-42.667L537.6 102.4 341.333 290.133C290.133 341.333 256 409.6 256 490.667 256 644.267 379.733 768 533.333 768s277.334-123.733 277.334-277.333c0-72.534-25.6-136.534-72.534-187.734l-12.8-12.8z m-192 93.867c-59.733 0-106.666 46.933-106.666 106.667S473.6 597.333 533.333 597.333 640 550.4 640 490.667 593.067 384 533.333 384z m0 42.667c34.134 0 64 29.866 64 64s-29.866 64-64 64-64-29.867-64-64 29.867-64 64-64z"  horiz-adv-x="1024" />

    
    <glyph glyph-name="caigou-xianxing" unicode="&#58897;" d="M548.37 113.49c-58.67 0-108.68 0.12-126.66 0.49-58.58 1.22-79.85 56.41-82.9 85.43-0.36 2.64-44.14 330.81-57.17 410.06-2.47 15-8.37 25.42-18.06 31.81-18.26 12.08-47.55 8.57-57.3 6.18-12.81-3.16-25.82 4.7-28.99 17.51-3.18 12.8 4.53 25.75 17.33 29 5.61 1.4 55.97 13.15 95.08-12.5 21.02-13.76 34.58-35.97 39.23-64.22 13.14-79.95 55.66-398.64 57.46-412.17 0.57-4.8 5.89-42.53 36.31-43.16 52.03-1.12 389.82 0 393.21 0h0.08c13.2 0 23.92-10.67 23.97-23.9s-10.65-23.99-23.89-24.04c-9.15-0.03-154.51-0.49-267.7-0.49zM450.31 42.58a49.24 49.24 0 1 1 98.48 0 49.24 49.24 0 1 1-98.48 0zM655.81 42.58a49.24 49.24 0 1 1 98.48 0 49.24 49.24 0 1 1-98.48 0zM314.67 611.16h514.58s49.64-16.55 57.91-61.22-47.98-274.66-47.98-274.66-26.47-46.33-56.26-41.36H369.27l-54.6 377.24z"  horiz-adv-x="1024" />

    
    <glyph glyph-name="ditu" unicode="&#58898;" d="M1017.6 6.4c-6.4 12.8-6.4 19.2-6.4 19.2L889.6 262.4l-6.4 6.4-6.4 6.4C864 294.4 851.2 320 819.2 320h-128c-19.2 0-25.6-12.8-25.6-25.6s12.8-25.6 25.6-25.6h128s6.4-6.4 12.8-19.2l6.4-6.4L960 25.6s-6.4-6.4-12.8-6.4H76.8s-6.4 0-6.4 6.4l128 217.6s6.4 6.4 6.4 12.8 6.4 6.4 0 6.4H320c19.2 0 25.6 12.8 25.6 25.6s-12.8 25.6-25.6 25.6H204.8c-32 0-44.8-19.2-51.2-32l-6.4-6.4s-6.4-6.4-6.4-12.8L6.4 32v-12.8c0-38.4 32-64 70.4-64h870.4c32-6.4 70.4 12.8 70.4 51.2zM512 492.8c70.4 0 128 57.6 128 128s-57.6 128-128 128-128-57.6-128-128 57.6-128 128-128z m0 198.4c38.4 0 70.4-32 70.4-70.4-6.4-38.4-38.4-70.4-70.4-70.4-38.4 0-70.4 32-70.4 70.4 0 38.4 32 70.4 70.4 70.4zM441.6 211.2c25.6-32 44.8-44.8 70.4-44.8s44.8 12.8 70.4 44.8c70.4 76.8 160 185.6 192 307.2 25.6 83.2 6.4 172.8-44.8 249.6C678.4 832 595.2 870.4 512 870.4 416 870.4 339.2 832 281.6 768c-51.2-64-64-160-32-249.6 25.6-83.2 89.6-192 192-307.2zM326.4 736c32 51.2 96 76.8 179.2 76.8 64 0 128-32 166.4-83.2 44.8-57.6 64-134.4 44.8-198.4-32-115.2-115.2-217.6-185.6-281.6L505.6 224s-6.4 6.4-6.4 12.8c-6.4 6.4-6.4 12.8-12.8 12.8l-12.8 12.8c-44.8 51.2-140.8 166.4-172.8 275.2C281.6 608 288 678.4 326.4 736z"  horiz-adv-x="1024" />

    
    <glyph glyph-name="shitixing" unicode="&#58899;" d="M512 864C246.903 864 32 649.097 32 384s214.903-480 480-480 480 214.903 480 480S777.097 864 512 864z m0-90c215.391 0 390-174.609 390-390S727.391-6 512-6 122 168.609 122 384s174.609 390 390 390z m-44-194.535c0-60 90-60 90 0V608c0 60-90 60-90 0v-28.535zM468 160c0-60 90-60 90 0V434c0 60-90 60-90 0v-274z"  horiz-adv-x="1024" />

    
    <glyph glyph-name="dizhi" unicode="&#58900;" d="M512 636c-77.3 0-140-62.7-140-140s62.7-140 140-140 140 62.7 140 140-62.7 140-140 140z m0-196c-30.9 0-56 25.1-56 56s25.1 56 56 56 56-25.1 56-56-25.1-56-56-56z m0 392c-185.6 0-336-150.4-336-336s336-560 336-560 336 374.4 336 560c0 185.6-150.4 336-336 336zM260 496c0 139.2 112.8 252 252 252s252-112.8 252-252-252-448-252-448-252 308.8-252 448z"  horiz-adv-x="1024" />

    
    <glyph glyph-name="bianji" unicode="&#58901;" d="M257.7 144c2 0 4 0.2 6 0.5L431.9 174c2 0.4 3.9 1.3 5.3 2.8l423.9 423.9c3.9 3.9 3.9 10.2 0 14.1L694.9 781.1c-1.9 1.9-4.4 2.9-7.1 2.9s-5.2-1-7.1-2.9L256.8 357.2c-1.5-1.5-2.4-3.3-2.8-5.3l-29.5-168.2c-1.9-11.1 1.5-21.9 9.4-29.8 6.6-6.4 14.9-9.9 23.8-9.9z m67.4 174.4L687.8 681l73.3-73.3-362.7-362.6-88.9-15.7 15.6 89zM880 60H144c-17.7 0-32-14.3-32-32v-36c0-4.4 3.6-8 8-8h784c4.4 0 8 3.6 8 8v36c0 17.7-14.3 32-32 32z"  horiz-adv-x="1024" />

    
    <glyph glyph-name="caidan" unicode="&#58902;" d="M374.272 455.168H127.488c-33.792 0-61.44 27.648-61.44 61.44V763.392c0 33.792 27.648 61.44 61.44 61.44h247.296c33.792 0 61.44-27.648 61.44-61.44v-247.296c-0.512-33.792-27.648-60.928-61.952-60.928zM127.488 763.392v-247.296h247.296V763.392H127.488zM762.88 403.968c-16.384 0-31.744 6.144-43.52 17.92L544.768 596.48c-11.776 11.776-17.92 27.136-17.92 43.52s6.144 31.744 17.92 43.52L719.36 858.112c11.776 11.776 27.136 17.92 43.52 17.92s31.744-6.144 43.52-17.92L980.992 683.52c11.776-11.776 17.92-27.136 17.92-43.52s-6.144-31.744-17.92-43.52L806.4 421.888c-11.776-11.776-27.136-17.92-43.52-17.92z m0 410.624L588.288 640 762.88 465.408 937.472 640 762.88 814.592zM374.272-56.832H127.488c-33.792 0-61.44 27.648-61.44 61.44V251.904c0 33.792 27.648 61.44 61.44 61.44h247.296c33.792 0 61.44-27.648 61.44-61.44v-247.296c-0.512-34.304-27.648-61.44-61.952-61.44zM127.488 251.392v-247.296h247.296V251.392H127.488z m758.784-308.224H638.976c-33.792 0-61.44 27.648-61.44 61.44V251.904c0 33.792 27.648 61.44 61.44 61.44h247.296c33.792 0 61.44-27.648 61.44-61.44v-247.296c0-34.304-27.136-61.44-61.44-61.44zM639.488 251.392v-247.296h247.296V251.392H639.488z"  horiz-adv-x="1024" />

    
    <glyph glyph-name="dingdan-yituikuan" unicode="&#58903;" d="M641.36 756.88c-209.64-3.24-376.96-175.81-373.72-385.45 3.16-205.08 168.65-370.56 373.72-373.72 209.64 3.24 376.96 175.81 373.72 385.45-3.16 205.07-168.64 370.55-373.72 373.72z m98.52-438.06c18.17 0 32.85-9.81 32.85-21.91s-14.69-21.96-32.85-21.96h-69.41v-74.65c0-15.09-9.86-27.43-21.96-27.43s-21.91 12.2-21.91 27.43v74.65h-83.73c-18.17 0-32.85 9.85-32.85 21.96 0 12.11 14.69 21.91 32.85 21.91h83.73v43.7h-83.73c-18.17 0-32.85 9.81-32.85 21.96 0 12.11 14.69 21.91 32.85 21.91h83.73v17.49c-4.82 2.24-9.2 5.33-12.92 9.13l-91.51 91.96c-12.52 12.52-15.81 29.37-7.46 37.74 8.36 8.31 25.26 4.97 37.65-7.55l91.56-91.96 0.99-0.99c1.08 1.36 2.26 2.71 3.62 3.98l80.88 80.88c12.78 12.83 30.19 16.31 38.73 7.77 8.54-8.54 5.15-25.89-7.77-38.73l-80.88-80.88c-2.77-2.8-5.89-5.24-9.27-7.27 0.3-1.7 0.45-3.42 0.45-5.15v-16.4h69.27c18.17 0 32.85-9.81 32.85-21.91 0-12.16-14.69-21.96-32.85-21.96h-69.41v-43.7h69.41l-0.06-0.02z m-526.81 297.2l0.95-0.45c20.67-8.99 30.13-33.02 21.15-53.68a426.642 426.642 0 0 1-35.06-170.81 430.403 430.403 0 0 1 37.15-175.42l3.16-3.16c16.37-17.84 15.18-45.57-2.65-61.93-16.75-15.38-42.49-15.39-59.26-0.02L20.38 308.61c-16.35 17.85-15.14 45.58 2.7 61.93 16.76 15.36 42.49 15.35 59.25-0.02l38.41-38.45a523.471 523.471 0 0 0-3.34 58.97c0 71.08 14.1 139.68 41.89 203.71 8.96 20.71 33.01 30.23 53.71 21.27l0.06-0.03v0.03z"  horiz-adv-x="1024" />

    
    <glyph glyph-name="bianji1" unicode="&#58904;" d="M981.333 106.667c0-106.667-85.333-192-192-192H234.667c-106.667 0-192 85.333-192 192V661.333c0 106.667 85.333 192 192 192h381.866V896H234.667C104.533 896 0 791.467 0 661.333v-554.666C0-23.467 104.533-128 234.667-128h554.666C919.467-128 1024-23.467 1024 106.667V505.6h-42.667v-398.933zM471.467 343.467c12.8-12.8 32-12.8 44.8 0l499.2 497.066c12.8 12.8 12.8 32 0 44.8-12.8 12.8-32 12.8-44.8 0l-499.2-497.066c-12.8-12.8-12.8-32 0-44.8z"  horiz-adv-x="1025" />

    
    <glyph glyph-name="biankuang" unicode="&#58905;" d="M880 784H144c-17.7 0-32-14.3-32-32v-736c0-17.7 14.3-32 32-32h736c17.7 0 32 14.3 32 32V752c0 17.7-14.3 32-32 32z m-40-728H184V712h656v-656z"  horiz-adv-x="1024" />

    
    <glyph glyph-name="duihao2" unicode="&#58906;" d="M480 160c-8 0-16 3.2-22.4 9.6l-288 288c-12.8 12.8-12.8 32 0 44.8 12.8 12.8 32 12.8 44.8 0L480 236.8l425.6 425.6c12.8 12.8 32 12.8 44.8 0 12.8-12.8 12.8-32 0-44.8l-448-448C496 163.2 488 160 480 160z"  horiz-adv-x="1024" />

    
    <glyph glyph-name="kongxinxing" unicode="&#58907;" d="M805.85444-81.46a36.443 36.443 0 0 0-19.679 5.752L512.00144 99.218 237.82544-75.708c-12.75-8.108-29.07-7.572-41.18 1.25-12.178 8.82-17.676 24.213-13.891 38.748l81.75 314.818L13.32744 485.749c-11.607 9.57-16.179 25.25-11.536 39.536 4.643 14.32 17.57 24.32 32.57 25.214l324.676 19.608L477.96444 872.783C483.46644 886.78 496.96644 895.995 512.00044 895.995s28.535-9.215 34.035-23.214l118.927-302.676 324.675-19.608c15-0.892 27.928-10.893 32.57-25.214 4.644-14.285 0.072-29.965-11.536-39.536l-251.174-206.64 81.75-314.817c3.785-14.535-1.715-29.928-13.894-38.748a36.536 36.536 0 0 0-21.5-7.001zM512.00144 179.183c6.82 0 13.678-1.93 19.679-5.751l215.39-137.428-64.213 247.318c-3.571 13.75 1.18 28.357 12.144 37.429L892.32044 483.107 637.25044 498.5c-14.213 0.857-26.605 9.892-31.818 23.142L512.00044 759.426l-93.427-237.784c-5.215-13.25-17.608-22.287-31.821-23.142l-255.07-15.393 197.32-162.357c10.964-9.072 15.715-23.678 12.143-37.43l-64.214-247.317L492.32444 173.43c6 3.823 12.856 5.75 19.677 5.75z"  horiz-adv-x="1025" />

    
    <glyph glyph-name="fenxiangyoujiang" unicode="&#58908;" d="M430.72 416.213a32 32 0 0 0-16.213 59.52l184.533 108.16a32 32 0 1 0 32.427-55.253L446.933 420.48a31.787 31.787 0 0 0-16.213-4.267zM626.133 150.4a31.787 31.787 0 0 0-17.066 4.907l-192 121.173a32 32 0 0 0 34.133 54.187l192-121.174a32 32 0 0 0-17.067-59.093zM695.68 465.92a134.4 134.4 0 1 0 134.4 134.4 134.613 134.613 0 0 0-134.4-134.4z m0 183.467a49.067 49.067 0 1 1 49.067-49.067 49.067 49.067 0 0 1-49.067 49.067z m-378.453-426.88a157.44 157.44 0 1 0 157.44 157.226 157.44 157.44 0 0 0-157.44-157.226z m0 229.333a72.107 72.107 0 1 1 72.106-72.107 72.107 72.107 0 0 1-72.106 72.107zM695.68 4.907a134.4 134.4 0 1 0 134.4 134.4 134.613 134.613 0 0 0-134.4-134.4z m0 183.466a49.067 49.067 0 1 1 49.067-49.066 49.067 49.067 0 0 1-49.067 49.066zM334.983 108.928a42.667 42.667 0 1 1 60.34 60.34 42.667 42.667 0 1 1-60.34-60.34z"  horiz-adv-x="1024" />

    
    <glyph glyph-name="gerentouxiang_o" unicode="&#58909;" d="M768 162.133L674.133 256h-281.6l-93.866-93.867v-76.8H768v76.8z m42.667 17.067v-136.533H256V179.2l119.467 119.467h311.466L810.667 179.2z m-85.334 354.133c0-106.666-85.333-192-192-192s-192 85.334-192 192 85.334 192 192 192 192-85.333 192-192z m-42.666 0c0 81.067-68.267 149.334-149.334 149.334S384 614.4 384 533.333 452.267 384 533.333 384s149.334 68.267 149.334 149.333z"  horiz-adv-x="1024" />

    
    <glyph glyph-name="dingdan" unicode="&#58910;" d="M609.536 630.938H406.682c-48.999 0-88.73 39.73-88.73 88.73 0 48.998 39.731 88.729 88.73 88.729h202.854c48.998 0 88.73-39.731 88.73-88.73 0-48.998-39.732-88.73-88.73-88.73zM754.842 745.933h-34.048c-11.93 50.432-57.242 88.064-111.258 88.064H406.682c-54.016 0-99.38-37.632-111.258-88.064h-31.232c-72.755 0-131.891-59.341-131.891-132.25v-545.945c0-72.91 59.187-132.25 131.891-132.25h490.65c72.755 0 131.89 59.34 131.89 132.25V613.683c0 72.909-59.186 132.25-131.89 132.25z m-348.16 36.864h202.854c34.816 0 63.13-28.314 63.13-63.13s-28.314-63.13-63.13-63.13H406.682c-34.816 0-63.13 28.314-63.13 63.13s28.314 63.13 63.13 63.13z m428.85-715.06c0-44.697-36.198-81.049-80.69-81.049H264.14c-44.493 0-80.691 36.352-80.691 81.05V613.683c0 44.698 36.198 81.05 80.69 81.05h30.926c11.417-51.098 57.088-89.395 111.564-89.395h202.855c54.477 0 100.147 38.297 111.565 89.395h33.74c44.493 0 80.692-36.352 80.692-81.05v-545.945zM621.926 446.106H403.558c-14.13 0-25.6-11.47-25.6-25.6s11.47-25.6 25.6-25.6h218.368c14.132 0 25.6 11.468 25.6 25.6s-11.468 25.6-25.6 25.6z m0-185.652H403.558c-14.13 0-25.6-11.468-25.6-25.6s11.47-25.6 25.6-25.6h218.368c14.132 0 25.6 11.47 25.6 25.6s-11.468 25.6-25.6 25.6z"  horiz-adv-x="1024" />

    
    <glyph glyph-name="guanbi" unicode="&#58911;" d="M551.424 384l195.072 195.072c9.728 9.728 9.728 25.6 0 36.864l-1.536 1.536c-9.728 9.728-25.6 9.728-35.328 0L514.56 420.864 319.488 615.936c-9.728 9.728-25.6 9.728-35.328 0l-1.536-1.536c-9.728-9.728-9.728-25.6 0-36.864L477.696 384 282.624 188.928c-9.728-9.728-9.728-25.6 0-36.864l1.536-1.536c9.728-9.728 25.6-9.728 35.328 0L514.56 347.136l195.072-195.072c9.728-9.728 25.6-9.728 35.328 0l1.536 1.536c9.728 9.728 9.728 25.6 0 36.864L551.424 384z"  horiz-adv-x="1024" />

    
    <glyph glyph-name="hebingxingzhuang" unicode="&#58912;" d="M39.385 29.538h945.23V-128H39.385V29.538zM433.23 896h157.538l315.077-787.692H748.308l-78.77 196.923H354.462l-78.77-196.923H118.154L433.23 896zM512 777.846L393.846 423.385h236.308L512 777.846z"  horiz-adv-x="1024" />

    
    <glyph glyph-name="erweima" unicode="&#58913;" d="M62.997 411.938h423.162V835.1H62.997v-423.162zM168.788 729.31H380.37v-211.581H168.79v211.58zM539.055 835.1v-423.163h423.163V835.1H539.055z m317.371-317.371h-211.58v211.58h211.58v-211.58z m-634.743 52.894h105.79V676.415h-105.79v-105.792zM62.997-64.12h423.162V359.043H62.997V-64.12z m105.791 317.372H380.37v-211.58H168.79v211.58z m634.744 423.163H697.74v-105.79h105.79v105.79zM539.055-64.12h105.79V41.67h-105.79v-105.79z m105.79 317.372v-211.58h105.791v211.58h-105.79zM856.427 41.67h-105.79v-105.79h211.58V147.462h-105.79V41.67z m0 211.582h105.79v105.79h-105.79v-105.79z m-317.37 105.79v-105.79h105.79v105.79h-105.79zM221.682 94.567h105.79v105.79h-105.79v-105.79z"  horiz-adv-x="1024" />

    
    <glyph glyph-name="duihao" unicode="&#58914;" d="M75.712 450.288l240.176-185.52s13.248-6.624 29.808 0l591.36 493.872s84.272 17.968 68.64-71.488c-57.04-57.968-638.464-617.856-638.464-617.856s-38.096-21.536-74.544 0C256.272 105.744 12.816 372.432 12.816 372.432s-6.672 64.592 62.896 77.856z"  horiz-adv-x="1024" />

    
    <glyph glyph-name="huangguan" unicode="&#58915;" d="M755.9-46.8H268.3c-80.7 0-146.3 65.6-146.3 146.3V220L92.9 482.2C40.7 488.6 0.1 533.2 0.1 587.1c0 58.3 47.4 105.7 105.6 105.7s105.6-47.4 105.6-105.7c0-24.3-8.4-47.4-23.4-66L353 308.8l103.5 310.6c-30.7 18.9-50.1 52.5-50.1 89.5 0 58.3 47.4 105.6 105.6 105.6S617.8 767.2 617.8 709c0-37-19.4-70.6-50.1-89.5l103.5-310.6 165.1 212.2c-15.1 18.6-23.4 41.7-23.4 66 0 58.3 47.4 105.7 105.6 105.7s105.7-47.4 105.7-105.7c0-53.9-40.6-98.5-92.8-104.9L902.2 220v-120.5c0-80.7-65.6-146.3-146.3-146.3zM139.5 503.9l31.2-282.6v-121.9c0-53.8 43.8-97.5 97.5-97.5h487.6c53.8 0 97.5 43.8 97.5 97.5l0.2 124.6 31.1 279.9-207.1-266.3h-34L512.1 631.9 380.7 237.6h-34L139.5 503.9z m756.7 28.8l19.2-2.2c1-0.1 2-0.3 3-0.3 31.4 0 56.9 25.5 56.9 56.9S949.8 644 918.4 644s-56.9-25.5-56.9-56.9c0-17.4 8.1-33.7 22.2-44.7l12.5-9.7zM105.8 643.9c-31.4 0-56.9-25.5-56.9-56.9s25.5-56.9 56.9-56.9c1 0 2 0.2 3 0.3l19.2 2.2 12.5 9.7c14.1 11 22.2 27.3 22.2 44.7-0.1 31.4-25.6 56.9-56.9 56.9z m406.3 121.9c-31.4 0-56.9-25.5-56.9-56.9 0-24.3 15.7-45.8 39-53.6l17.9-6 17.9 6c23.3 7.8 39 29.3 39 53.6 0 31.4-25.5 56.9-56.9 56.9z"  horiz-adv-x="1024" />

    
    <glyph glyph-name="caigou" unicode="&#58916;" d="M713.6 256c9.813 0 18.347 6.613 20.693 16l75.734 298.667c1.706 6.4 0.213 13.226-3.84 18.346s-10.24 8.32-16.854 8.32H251.307l-17.28 69.12a21.227 21.227 0 0 1-20.694 16.214H128c-11.733 0-21.333-9.6-21.333-21.334S116.267 640 128 640h68.693l17.28-69.12 75.734-298.667c0.64-2.346 1.493-4.48 2.773-6.4l-34.987-87.253c-2.56-6.613-1.706-14.08 2.134-19.84 4.053-5.76 10.666-9.387 17.706-9.387h469.334c11.733 0 21.333 9.6 21.333 21.334S758.4 192 746.667 192h-437.76l25.6 64H713.6zM262.187 554.667h499.84l-64.854-256H326.827l-64.64 256zM298.667 64A42.667 42.667 0 1 1 384 64a42.667 42.667 0 1 1-85.333 0zM640 64a42.667 42.667 0 1 1 85.333 0A42.667 42.667 0 1 1 640 64z"  horiz-adv-x="1024" />

    
    <glyph glyph-name="webicon318" unicode="&#58917;" d="M512.001 880.955a497.88 497.88 0 0 0 496.997-497.086c0-137.285-55.887-261.573-145.675-351.653C773.51-57.882 648.987-112.95 512-112.95c-137.262 0-261.53 55.07-351.317 145.174C70.895 122.302 15.008 246.59 15.008 383.869A497.88 497.88 0 0 0 512.001 880.955z m-22.786-917.1V124.482a405.118 405.118 0 0 1-129.124-26.595 137.139 137.139 0 0 1-17.102-6.512c3.53-7.062 6.786-14.099 10.571-20.887 25.514-45.603 55.336-80.888 88.988-101.223a372.745 372.745 0 0 1 46.671-5.41zM809.336 680.96a128.737 128.737 0 0 1-10.591 10.061 441.222 441.222 0 0 0-58.316-36.934c27.142-70.796 43.94-156.016 46.672-247.448h144.844A419.63 419.63 0 0 1 809.336 680.96z m-46.672 40.414a415.3 415.3 0 0 1-85.714 49.416 434.384 434.384 0 0 0 33.623-51.563c3.806-7.063 7.862-15.202 11.943-23.34 13.571 8.138 27.117 16.556 40.137 25.493zM581.43 798.73c-15.172 2.405-30.921 4.056-46.647 5.134v-161.17a429.022 429.022 0 0 1 129.128 26.589c5.986 2.177 11.393 4.357 17.077 6.787-2.955 7.337-7.037 14.373-10.542 20.887-24.99 46.155-55.61 80.889-89.013 101.774z m-92.217 5.134c-15.724-1.078-31.473-2.73-46.671-5.134-33.653-20.887-63.474-55.62-88.988-101.775-3.781-6.51-7.037-13.547-10.817-20.887 5.684-2.43 11.393-4.609 17.352-6.787a428.86 428.86 0 0 1 129.124-26.595V803.869zM347.07 770.789a414.846 414.846 0 0 1-85.732-49.416c13.02-8.94 26.591-17.355 40.413-25.494a233.264 233.264 0 0 0 11.667 23.34c10.041 19.007 21.709 35.811 33.652 51.563z m-122.088-79.763c-3.256-3.005-7.061-6.537-10.316-10.062A419.628 419.628 0 0 1 92.052 406.64h144.875c2.703 91.43 19.529 176.648 46.37 247.447a478.478 478.478 0 0 0-58.314 36.935zM92.052 360.81a420.78 420.78 0 0 1 122.615-274.32l10.316-10.292A425.319 425.319 0 0 0 283.3 113.61c-26.841 71.096-43.667 155.742-46.37 247.198H92.051z m169.287-314.489a415.883 415.883 0 0 1 85.732-49.383A360.533 360.533 0 0 0 313.42 48.5c-4.076 7.313-8.137 15.176-11.667 22.788a416.635 416.635 0 0 1-40.413-24.962z m273.442-82.465a371.78 371.78 0 0 1 46.647 5.409c33.402 20.335 64.024 55.62 89.013 101.223 3.505 6.787 7.587 13.824 10.542 20.887a133.886 133.886 0 0 1-17.077 6.512 405.26 405.26 0 0 1-129.12 26.594v-160.625z m142.17 33.082a416.34 416.34 0 0 1 85.713 49.383 390.678 390.678 0 0 1-40.138 24.963c-4.075-7.612-8.137-15.475-11.942-22.788-10.593-18.707-21.685-36.363-33.623-51.563z m121.789 79.26l10.59 10.293a420.78 420.78 0 0 1 122.615 274.32H787.101c-2.729-91.457-19.53-176.103-46.672-247.199a395.621 395.621 0 0 0 58.316-37.414z m-99.825 558.105a203.624 203.624 0 0 0-19.005-7.337 460.618 460.618 0 0 0-145.124-29.826v-190.5h206.196c-2.453 84.393-17.376 162.553-42.065 227.663z m-209.7-37.163a456.062 456.062 0 0 0-144.873 29.826 187.93 187.93 0 0 0-19.53 7.337c-24.413-65.11-39.61-143.27-42.065-227.663h206.468v190.5z m0-426.555V360.81H282.747c2.454-84.144 17.652-161.977 42.064-227.388 6.511 2.428 13.02 5.158 19.531 7.337 45.02 17.354 93.864 27.396 144.873 29.826z m45.571 0a465.366 465.366 0 0 0 144.875-29.826c6.509-2.18 12.743-4.909 19.254-7.337 24.689 65.41 39.609 143.244 42.064 227.388H534.786v-190.225z"  horiz-adv-x="1024" />

    
    <glyph glyph-name="huangguan2" unicode="&#58918;" d="M873.328-6.832h-720.98l-0.475 2.495-85.884 451.18L280.481 260.64l211.053 349.558 253.44-349.753 214.715 186.396-86.361-453.673z m-715.898 6.14h710.818L950.347 430.6 743.936 251.413l-1.968 2.714L492 599.091 281.965 251.22 75.331 430.6l82.099-431.294zM873.858-61.99H151.819v61.455h722.039v-61.456z m-715.899 6.14h709.76v49.175h-709.76v-49.176zM493.532 650.703c-43.556 0-78.992 36.057-78.992 80.377 0 44.346 35.436 80.424 78.992 80.424 43.557 0 78.993-36.078 78.993-80.424 0-44.32-35.436-80.377-78.993-80.377z m0 154.66c-40.171 0-72.852-33.323-72.852-74.283 0-40.934 32.681-74.237 72.852-74.237s72.853 33.303 72.853 74.237c0 40.96-32.681 74.284-72.853 74.284z"  horiz-adv-x="1024" />

    
    <glyph glyph-name="guanbi1" unicode="&#58919;" d="M512-39.68C278.272-39.68 88.32 150.272 88.32 384S278.272 807.68 512 807.68 935.68 617.728 935.68 384 745.728-39.68 512-39.68z m0 791.04c-202.496 0-367.36-164.864-367.36-367.36S309.504 16.64 512 16.64 879.36 181.504 879.36 384 714.496 751.36 512 751.36zM670.72 165.12c-8.192 0-16.128 3.328-21.76 10.24L331.52 556.8c-9.984 12.032-8.448 29.696 3.584 39.68 12.032 9.984 29.696 8.448 39.68-3.584l317.44-381.44c9.984-12.032 8.448-29.696-3.584-39.68-5.12-4.608-11.52-6.656-17.92-6.656zM353.28 165.12c-6.4 0-12.8 2.048-17.92 6.4-12.032 9.984-13.568 27.648-3.584 39.68l317.44 381.44c9.984 12.032 27.648 13.568 39.68 3.584s13.568-27.648 3.584-39.68l-317.44-381.44c-5.632-6.656-13.824-9.984-21.76-9.984z"  horiz-adv-x="1024" />

    
    <glyph glyph-name="fenxiang" unicode="&#58920;" d="M894.518 231.112c-68.635 0-124.721-36.712-150.81-93.733l-331.73 141.067a195.394 195.394 0 0 1 29.998 106.338c0 16.402-1.927 32.86-5.835 48.326l211.796 164.295c28.072-21.245 63.847-33.849 103.476-33.849 95.772 0 167.324 71.553 167.324 166.222C918.737 824.502 847.184 896 751.414 896S585.08 824.502 585.08 729.778c0-24.163 4.844-46.399 12.605-65.718L402.292 514.295c-38.638 57.957-102.485 98.522-175.029 98.522A214.107 214.107 0 0 1 12.603 399.26v-0.935a214.107 214.107 0 0 1 214.66-214.548c44.528 0 86.084 11.559 119.988 32.805l380.99-162.37c4.844-89.826 74.471-156.535 166.277-156.535 95.772 0 166.334 71.553 166.334 166.222 0 94.724-71.553 167.212-166.278 167.212z"  horiz-adv-x="1072" />

    
    <glyph glyph-name="gouwuche" unicode="&#58921;" d="M338.944 105.472q19.456 0 36.864-7.168t30.208-19.968 20.48-30.208 7.68-36.864-7.68-36.864-20.48-30.208-30.208-20.48-36.864-7.68q-20.48 0-37.888 7.68t-30.208 20.48-20.48 30.208-7.68 36.864 7.68 36.864 20.48 30.208 30.208 19.968 37.888 7.168z m425.984-2.048q19.456 0 37.376-7.168t30.72-19.968 20.48-30.208 7.68-36.864-7.68-36.864-20.48-30.208-30.72-20.48-37.376-7.68-36.864 7.68-30.208 20.48-20.48 30.208-7.68 36.864 7.68 36.864 20.48 30.208 30.208 19.968 36.864 7.168z m172.032 581.632q28.672 0 44.544-7.68t22.528-18.944 6.144-24.064-3.584-22.016-13.312-37.888-22.016-62.976-23.552-68.096-18.944-53.248q-13.312-40.96-33.28-56.832T845.824 317.44h-537.6l14.336-92.16h517.12q49.152 0 49.152-41.984 0-20.48-9.728-35.84t-38.4-14.336H304.128q-20.48 0-34.304 9.216T246.784 166.4t-14.848 32.256-8.704 32.768q-1.024 6.144-5.632 29.696T206.336 320t-14.848 78.848T175.104 486.4q-19.456 103.424-44.032 230.4h-76.8q-15.36 0-25.6 7.68T11.776 742.912t-9.216 23.04-2.56 22.528q0 20.48 13.824 33.792T51.2 834.56H154.624q20.48 0 32.768-6.144t19.456-15.36 10.24-18.944 5.12-16.896q2.048-8.192 4.096-23.04t4.096-30.208q3.072-18.432 6.144-38.912h700.416z m-37.888-91.136l-641.024 2.048 35.84-185.344 535.552-1.024z"  horiz-adv-x="1034" />

    
    <glyph glyph-name="huobiliu_o" unicode="&#58922;" d="M512 298.667h85.333V256H512v-42.667h-42.667V256H384v42.667h85.333v42.666H384V384h85.333L362.667 490.667l29.866 29.866 98.134-98.133 98.133 98.133 29.867-29.866L512 384h85.333v-42.667H512v-42.666z m426.667 170.666v-42.666c-25.6-8.534-42.667-34.134-42.667-59.734s17.067-51.2 42.667-59.733v-221.867H896v192c-25.6 21.334-42.667 51.2-42.667 85.334S870.4 426.667 896 448V640h42.667v-170.667z m-85.334 0v-42.666c-25.6-8.534-42.666-34.134-42.666-59.734s17.066-51.2 42.666-59.733v-221.867H128v217.6c25.6 8.534 42.667 34.134 42.667 59.734S153.6 413.867 128 422.4V640h725.333v-170.667zM810.667 448V597.333h-640V448c25.6-21.333 42.666-51.2 42.666-85.333s-17.066-64-42.666-85.334V128h640V277.333c-25.6 21.334-42.667 51.2-42.667 85.334s17.067 64 42.667 85.333z"  horiz-adv-x="1024" />

    
    <glyph glyph-name="jiantou" unicode="&#58923;" d="M815.118336 473.449472L551.446528 737.12128c-20.59264 20.59264-53.974016 20.59264-74.566656 0L213.208064 473.449472c-20.59264-20.59264-20.59264-53.974016 0-74.566656s53.974016-20.59264 74.566656 0l173.65504 173.65504v-505.511936c0-29.135872 23.599104-52.734976 52.734976-52.734976s52.734976 23.599104 52.734976 52.734976V572.537856l173.65504-173.65504c10.283008-10.284032 23.783424-15.451136 37.28384-15.451136s26.999808 5.141504 37.28384 15.451136c20.59264 20.59264 20.59264 53.974016 0 74.566656z"  horiz-adv-x="1024" />

    
    <glyph glyph-name="huangguan1" unicode="&#58924;" d="M1016.604 504.974c0 41.87-33.934 75.833-75.832 75.833s-75.833-33.934-75.833-75.833c0-16.07 5.063-30.919 13.596-43.178-39.964-22.472-79.587-54.386-144.327-54.386-10.496 0-20.65 0.853-30.123 2.56-101.86 18.318-156.273 136.732-161.735 171.634 25.259 12.316 42.81 37.973 42.81 67.982 0 41.87-33.935 75.833-75.834 75.833s-75.833-33.935-75.833-75.833c0-32.54 20.594-60.046 49.38-70.827-5.149-38.855-57.486-160.768-156.558-174.99-8.022-1.166-16.498-1.735-25.174-1.735-64.227 0-103.623 30.89-146.204 54.585 3.811 9.045 5.916 18.972 5.916 29.383 0 41.87-33.934 75.833-75.833 75.833-20.536 0-39.082-8.25-52.736-21.476l-1.28 0.996 0.626-1.565c-13.795-13.71-22.386-32.74-22.386-53.76 0-41.842 33.906-75.776 75.748-75.804l196.21-476.53h462.933l204.317 496.242c38.229 3.897 68.152 35.811 68.152 75.036z m-310.556-514.39H319.346l-165.69 402.348c47.588-23.58 83.57-47.787 147.57-47.787 11.378 0 22.586 0.768 33.252 2.304 83.598 11.975 156.615 72.675 180.281 130.02 25.031-53.305 98.56-108.971 179.285-123.506 12.8-2.304 26.312-3.47 40.192-3.47 60.473 0 92.7 21.93 138.041 43.719L706.048-9.415z"  horiz-adv-x="1026" />

    
    <glyph glyph-name="gouwuche1" unicode="&#58925;" d="M949.527 693.527c-4.654 4.655-11.636 6.982-18.618 6.982H225.745L204.8 816.873c0 2.327 0 2.327-2.327 2.327 0 2.327 0 2.327-2.328 4.655l-2.327 2.327c2.327 2.327 0 4.654-2.327 6.982-4.655 2.327-6.982 4.654-13.964 4.654H93.091c-13.964 0-23.273-9.309-23.273-23.273s9.31-23.272 23.273-23.272h69.818l102.4-567.855c2.327-11.636 11.636-18.618 23.273-18.618h532.945c13.964 0 23.273 9.31 23.273 23.273s-9.31 23.272-23.273 23.272h-512l-72.145 402.619h670.254L875.055 409.6c-4.655-37.236-34.91-62.836-72.146-62.836H388.655c-13.964 0-23.273-9.31-23.273-23.273s9.309-23.273 23.273-23.273h411.927c60.509 0 111.709 44.218 118.69 104.727l34.91 269.964c0 6.982-2.327 13.964-4.655 18.618zM346.764 169.891c-60.51 0-109.382-48.873-109.382-109.382s48.873-109.382 109.382-109.382S456.145 0 456.145 60.51c-2.327 60.51-48.872 109.382-109.381 109.382z m0-169.891c-34.91 0-62.837 27.927-62.837 62.836 0 34.91 27.928 62.837 62.837 62.837s62.836-27.928 62.836-62.837C407.273 27.927 381.673 0 346.764 0z m428.218 169.89c-60.51 0-109.382-48.872-109.382-109.38s48.873-109.383 109.382-109.383S884.364 0 884.364 60.51 835.49 169.891 774.982 169.891z m0-169.89c-34.91 0-62.837 27.927-62.837 62.836 0 34.91 27.928 62.837 62.837 62.837s62.836-27.928 62.836-62.837c0-34.909-27.927-62.836-62.836-62.836zM574.836 577.164c0 13.963-9.309 23.272-23.272 23.272H339.782c-13.964 0-23.273-9.309-23.273-23.272s9.31-23.273 23.273-23.273h211.782c13.963 0 23.272 9.309 23.272 23.273z"  horiz-adv-x="1093" />

    
    <glyph glyph-name="jingyanzhi" unicode="&#58926;" d="M917.4 625.9L786.7 756c-2.8 2.8-6.6 4.4-10.6 4.4H247.9c-4 0-7.8-1.6-10.6-4.4L106.5 624.9c-5-5-5.8-13-1.8-18.9l395.8-591.6c2.8-4.2 7.4-6.7 12.5-6.7 5 0 9.7 2.5 12.5 6.7L919.3 607c4 5.9 3.2 13.9-1.9 18.9zM771.6 734.3L879 627.5H718l-52.7 106.8h106.3zM303.2 601.5l166.3-494.2-330.6 494.2h164.3z m27.4 0h361.2l-179-541.4-182.2 541.4z m388.6 0h165.3L555.6 106.8l163.6 494.7z m-82.8 132.8L689 627.5H333.7l53.8 106.8h248.9z m-383.9 0h106l-53.8-106.8H145.9l106.6 106.8z"  horiz-adv-x="1024" />

    
    <glyph glyph-name="jinbi_o" unicode="&#58927;" d="M554.667 298.667H640V256h-85.333v-42.667H512V256h-85.333v42.667H512v42.666h-85.333V384h89.6l-98.134 98.133L448 512l85.333-85.333L618.667 512l29.866-29.867L550.4 384H640v-42.667h-85.333v-42.666zM546.133 384z m-12.8-384C332.8 0 170.667 162.133 170.667 362.667S332.8 725.333 533.333 725.333 896 563.2 896 362.667 733.867 0 533.333 0z m0 42.667c174.934 0 320 145.066 320 320s-145.066 320-320 320-320-145.067-320-320 145.067-320 320-320z m0 42.666C379.733 85.333 256 209.067 256 362.667S379.733 640 533.333 640s277.334-123.733 277.334-277.333-123.734-277.334-277.334-277.334z m0 42.667C661.333 128 768 234.667 768 362.667S661.333 597.333 533.333 597.333 298.667 490.667 298.667 362.667 405.333 128 533.333 128z"  horiz-adv-x="1024" />

    
    <glyph glyph-name="lingxing" unicode="&#58928;" d="M512 826.521l442.498-442.498L512-58.475 69.502 384.023 512 826.521z"  horiz-adv-x="1024" />

    
    <glyph glyph-name="jishuzhichi" unicode="&#58929;" d="M129.6 247.83c-6 27.33-9.03 55.54-9.03 83.87 0 171.92 114.97 326.21 279.59 375.2l14.43-48.49C271.26 615.74 171.18 481.4 171.18 331.7c0-24.69 2.64-49.27 7.84-73.04l-49.42-10.83z m382.38-307.55c-106.05 0-205.34 41.72-279.59 117.48l36.17 35.41c64.6-65.97 151.08-102.29 243.42-102.29 89.74 0 174.47 34.57 238.51 97.37l35.45-36.14C712.35-20 615.06-59.72 511.98-59.72z m382.41 307.55l-49.42 10.84c5.21 23.77 7.84 48.34 7.84 73.04 0 149.7-100.08 284.04-243.42 326.7l14.43 48.49c164.62-48.99 279.59-203.28 279.59-375.2 0.01-28.33-3.02-56.55-9.02-83.87zM511.92 567.83c-18.18 0-36.3 3.87-53.37 11.58-65.26 29.48-94.42 106.57-64.97 171.85 29.48 65.28 106.54 94.43 171.87 64.97 31.63-14.28 55.81-40.03 68.06-72.48 12.26-32.47 11.17-67.77-3.13-99.37-14.26-31.63-39.99-55.81-72.48-68.08-14.92-5.66-30.47-8.47-45.98-8.47z m0.23 209.29c-30.28 0-59.2-17.38-72.44-46.68-17.99-39.85-0.16-86.91 39.66-104.91 19.27-8.73 40.82-9.42 60.65-1.89 19.83 7.49 35.55 22.24 44.24 41.56 8.73 19.31 9.39 40.85 1.91 60.67s-22.24 35.53-41.54 44.24c-10.54 4.75-21.61 7.01-32.48 7.01z m-317.28-758.4c-65.89 0-122.52 50.09-129.21 117-3.46 34.54 6.75 68.34 28.73 95.19 21.97 26.85 53.11 43.54 87.63 46.98 34.43 3.61 68.36-6.74 95.17-28.71 26.85-21.97 43.55-53.09 46.98-87.63 3.46-34.51-6.72-68.31-28.69-95.17-21.97-26.85-53.11-43.55-87.63-46.99-4.35-0.46-8.7-0.67-12.98-0.67z m0.19 209.23c-2.67 0-5.34-0.13-8.04-0.4-21.08-2.11-40.06-12.29-53.47-28.69-13.41-16.39-19.67-37.03-17.56-58.11 4.38-43.52 43.49-75.14 86.84-71.03 21.05 2.11 40.06 12.3 53.47 28.69 13.41 16.41 19.63 37.05 17.53 58.11-2.11 21.08-12.29 40.08-28.69 53.48-14.3 11.72-31.83 17.95-50.08 17.95z m634.17-209.16c-40.42 0-80.32 18.78-105.68 54.03v0.02c-41.77 58.16-28.46 139.48 29.72 181.29 28.17 20.26 62.46 28.38 96.79 22.71 34.23-5.6 64.24-24.2 84.5-52.38 20.26-28.17 28.33-62.54 22.7-96.79-5.6-34.26-24.18-64.27-52.38-84.52-22.91-16.46-49.39-24.36-75.65-24.36z m-64.57 83.57c25.47-35.5 75.21-43.57 110.69-18.14 17.2 12.37 28.56 30.69 31.99 51.61 3.39 20.9-1.52 41.89-13.9 59.08-12.35 17.21-30.67 28.56-51.56 31.99-20.99 3.41-41.87-1.5-59.1-13.87-35.51-25.52-43.65-75.17-18.12-110.67z"  horiz-adv-x="1024" />

    
    <glyph glyph-name="kanjia" unicode="&#58930;" d="M506.685-60.38c-6.922 0-14.633 2.949-24.642 9.175l-2.09 1.3-1.745 1.736L47.734 379.044l30.669 30.904 426.101-422.876 441.55 435.02 30.56-31.016-441.41-434.883c-10.675-10.757-18.811-16.573-28.519-16.573zM504.335-93.486c-9.61 0-18.739 3.394-25.676 10.332L45.164 350.341c-15.509 15.514-13.328 42.005 4.976 60.303L500.42 860.923l13.004-1.715 399.022-43.47c17.05-1.858 29.758-14.56 31.611-31.61l43.013-394.353c1.219-11.207-3.333-23.173-12.175-32.02L538.962-78.177c-10.117-10.112-22.738-15.31-34.627-15.31zM79.273 377.804l426.85-426.843a11.69 11.69 0 0 1 2.052 1.653l435.303 435.303-42.02 385.223-385.275 41.974L80.932 379.863a12.201 12.201 0 0 1-1.659-2.058z m821.504 401.608v-0.04 0.04zM537.6 527.36a97.28 97.28 0 1 1 194.56 0 97.28 97.28 0 1 1-194.56 0z"  horiz-adv-x="1024" />

    
    <glyph glyph-name="mingxi" unicode="&#58931;" d="M856-56H168V792h688z m-640 48h592V744H216zM283.19 408h457.63v-48H283.19z m0 165h288v-48h-288z m0-330h457.63v-48H283.19z"  horiz-adv-x="1024" />

    
    <glyph glyph-name="jinbi1" unicode="&#58932;" d="M511.872 799.713c229.42 0 416.078-186.658 416.078-416.078 0-229.418-186.658-416.076-416.078-416.076-229.418 0-416.08 186.658-416.08 416.076 0 229.42 186.662 416.078 416.08 416.078m0 64.011c-265.175 0-480.092-214.979-480.092-480.09 0-265.109 214.917-480.091 480.092-480.091 265.05 0 480.09 214.982 480.09 480.092-0.001 265.11-215.04 480.09-480.09 480.09zM648.461 374.633c-21.631 22.131-68.64 47.886-130.65 67.638-36.881 11.754-58.137 20.877-58.137 48.882 0 39.012 24.628 47.763 55.758 47.763 24.006 0 59.265-29.005 59.265-52.512l95.267 22.378c0 18.135-13.88 48.265-41.259 71.768-22.005 18.753-50.634 29.63-85.391 33.38v50.382h-63.385v-50.504c-36.76-4.502-62.635-16.506-84.768-35.261-22.752-19.13-36.755-50.882-36.755-82.388 0-36.51 5.623-68.012 26.003-90.146 20.252-22.25 93.518-47.13 129.773-55.256 35.009-7.877 67.39-29.883 67.64-60.514 0.375-37.383-34.006-51.51-62.76-51.51-48.26 0-80.641 35.883-80.641 67.26l-95.393-23.376c6.124-33.257 15.626-59.76 46.758-84.517 23.503-18.877 51.387-30.378 90.143-35.004v-60.14h63.385v59.261c36.257 2.877 66.76 16.878 92.017 35.51 29.758 22.25 45.385 50.632 45.385 92.515 0 34.007-10.75 62.012-32.255 84.391z"  horiz-adv-x="1025" />

    
    <glyph glyph-name="kefu" unicode="&#58933;" d="M864 480v32c0 195.2-156.8 352-352 352S160 707.2 160 512v-32c-54.4 0-96-41.6-96-96v-128c0-54.4 41.6-96 96-96h3.2c48-108.8 144-185.6 259.2-214.4 12.8-25.6 48-41.6 89.6-41.6 54.4 0 96 25.6 96 64s-41.6 64-96 64c-32 0-57.6-9.6-76.8-22.4C352 28.8 278.4 83.2 233.6 160c48 6.4 86.4 44.8 86.4 96V384c0 54.4-41.6 96-96 96v32c0 160 128 288 288 288s288-128 288-288v-32c-54.4 0-96-41.6-96-96v-128c0-54.4 41.6-96 96-96h64c54.4 0 96 41.6 96 96V384c0 54.4-41.6 96-96 96z m-608-96v-128c0-19.2-12.8-32-32-32h-64c-19.2 0-32 12.8-32 32V384c0 19.2 12.8 32 32 32h64c19.2 0 32-12.8 32-32z m640-128c0-19.2-12.8-32-32-32h-64c-19.2 0-32 12.8-32 32V384c0 19.2 12.8 32 32 32h64c19.2 0 32-12.8 32-32v-128z"  horiz-adv-x="1024" />

    
    <glyph glyph-name="laba" unicode="&#58934;" d="M609.425 881.618L381.68 739.616a190.545 190.545 0 0 0-99.237-27.835H169.247A167.94 167.94 0 0 1 0.127 546.076v-329.975a183.376 183.376 0 0 1 183.122-182.406h131.375a194.257 194.257 0 0 0 99.237-27.835l197.082-119.734a83.886 83.886 0 0 1 48.923-13.918 93.46 93.46 0 0 1 93.628 93.29V802.33a86.163 86.163 0 0 1-13.96 48.754 94.218 94.218 0 0 1-130.11 30.534z m48.923-916.161L461.265 85.19a297.88 297.88 0 0 1-145.376 41.753H184.514a89.917 89.917 0 0 0-89.452 89.115V546.034a72.92 72.92 0 0 0 72.71 72.414h114.63a281.854 281.854 0 0 1 149.552 41.753L659.697 802.203v-836.83h-1.392z m563.285 465.06H940.497a47.32 47.32 0 1 1 0-94.682h280.925a47.953 47.953 0 0 1 47.531 47.362 47.025 47.025 0 0 1-47.32 47.278z m-18.177-396.822L958.843 174.306a45.886 45.886 0 1 1-46.14-79.373l244.614-140.61a45.886 45.886 0 1 1 46.139 79.372zM956.059 594.62l244.613 140.61a45.886 45.886 0 1 1-46.139 79.374L909.92 673.993a43.777 43.777 0 0 1-16.87-62.672 45.253 45.253 0 0 1 62.883-16.87z"  horiz-adv-x="1269" />

    
    <glyph glyph-name="kefu_o" unicode="&#58935;" d="M928 172.8h-64V371.2C864 554.667 714.667 704 531.2 704S198.4 554.667 198.4 371.2v-198.4h-64V371.2c0 219.733 177.067 396.8 396.8 396.8S928 590.933 928 371.2v-198.4zM277.333 29.867H256c-68.267 0-121.6 55.466-121.6 121.6v83.2c0 68.266 55.467 121.6 121.6 121.6h21.333c68.267 0 121.6-55.467 121.6-121.6v-83.2c0-68.267-55.466-121.6-121.6-121.6zM256 294.4c-32 0-57.6-25.6-57.6-57.6v-83.2c0-32 25.6-57.6 57.6-57.6h21.333c32 0 57.6 25.6 57.6 57.6v81.067c0 32-25.6 57.6-57.6 57.6H256z m550.4-264.533h-19.2c-68.267 0-121.6 55.466-121.6 121.6v83.2c0 68.266 55.467 121.6 121.6 121.6h19.2c68.267 0 121.6-55.467 121.6-121.6v-83.2c0-68.267-55.467-121.6-121.6-121.6zM785.067 294.4c-32 0-57.6-25.6-57.6-57.6v-83.2c0-32 25.6-57.6 57.6-57.6h19.2c32 0 57.6 25.6 57.6 57.6v81.067c0 32-25.6 57.6-57.6 57.6h-19.2zM753.067 428.8c-12.8 0-25.6 8.533-29.867 21.333-21.333 61.867-76.8 89.6-76.8 89.6-14.933 8.534-21.333 27.734-12.8 42.667s27.733 21.333 42.667 12.8c2.133-2.133 76.8-40.533 106.666-125.867 6.4-17.066-2.133-34.133-19.2-40.533h-10.666z"  horiz-adv-x="1024" />

    
    <glyph glyph-name="huiyuan" unicode="&#58936;" d="M528.516 301.42v-132.13H198.194s-1.685 42.777 0 99.097c1.684 56.32 132.129 99.097 132.129 99.097s28.21 0.43 61.34 0.528c-70.722 2.874-127.405 67.849-127.405 148.117 0 82.085 59.16 148.645 132.13 148.645 72.967 0 132.128-66.56 132.128-148.645 0-80.202-56.551-145.078-127.174-148.084 21.108 0.033 43.338-0.099 61.11-0.561 49.086-1.255 66.064-66.065 66.064-66.065z m473.385-66.065h-69.896c16.483 46.575 25.93 96.454 25.93 148.645C957.935 630.289 758.29 829.935 512 829.935 265.711 829.935 66.065 630.29 66.065 384c0-246.289 199.646-445.935 445.935-445.935 40.068 0 78.683 5.78 115.613 15.69v-68.146C590.419-123.012 551.837-128 512-128 229.244-128 0 101.244 0 384 0 666.79 229.244 896 512 896s512-229.21 512-512c0-51.729-7.829-101.574-22.099-148.645zM561.548 367.484v33.032h132.13v-33.032h-132.13z m0 231.226h297.29v-33.033h-297.29V598.71z m297.29-132.13h-297.29v33.033h297.29v-33.032zM809.29 235.356c100.352 0 181.678-81.326 181.678-181.678S909.642-128 809.29-128s-181.677 81.325-181.677 181.677c0 100.352 81.325 181.678 181.677 181.678z m-31.017-289.627l23.354 23.387-5.153 5.12 130.84 116.472-21.966 24.675-132.261-117.76-64.908 64.908-23.354-23.354 93.448-93.448z"  horiz-adv-x="1024" />

    
    <glyph glyph-name="guanbi3" unicode="&#58937;" d="M512.282-61.937c-247.53 0-448.19 200.66-448.19 448.185 0 191.063 119.757 353.748 288.116 418.226v-69.339C220.058 674.4 128.119 541.228 128.119 386.248c0-212.15 172.012-384.162 384.163-384.162 212.153 0 384.159 172.01 384.159 384.162 0 154.98-91.944 288.15-224.094 348.918V804.474c168.36-64.478 288.116-227.168 288.116-418.226 0.005-247.524-200.655-448.185-448.18-448.185zM480.268 834.439h64.022v-449.34h-64.022V834.439z m0 0"  horiz-adv-x="1024" />

    
    <glyph glyph-name="jingpintuijian" unicode="&#58938;" d="M1.02 894.894h102.174v-1021.776H1.02z m204.358 0h102.173v-1021.776H205.378z m204.358 0h102.173v-1021.776H409.736z m204.357 0h102.173v-1021.776H614.093zM744.93 878.256L845.549 895.998l177.429-1006.253-100.62-17.742z"  horiz-adv-x="1024" />

    
    <glyph glyph-name="liulan" unicode="&#58939;" d="M204 484.7c3 3.6 9.5 10.3 19.3 19.2 16.7 15.2 36.5 30.4 59.4 44.6 65.4 40.7 141.7 65 228.4 65 86.7 0 163.1-24.4 228.5-65 22.9-14.2 42.7-29.4 59.4-44.6 9.8-9 16.3-15.7 19.3-19.2 8.2-9.7 22.8-11 32.7-2.9 9.8 8.1 11.2 22.5 3 32.2-4.2 5-12.1 13.3-23.5 23.6-18.7 17-40.7 33.9-66.1 49.7-72.4 45-157.2 72.1-253.2 72.1-96.1 0-180.8-27.1-253.2-72.1-25.4-15.8-47.5-32.7-66.1-49.7-11.4-10.3-19.3-18.6-23.5-23.6-8.2-9.7-6.9-24.1 3-32.2 9.8-8.2 24.4-6.8 32.6 2.9z m0 0M371.9 385c0-75.7 62.4-137.1 139.3-137.1S650.5 309.3 650.5 385s-62.4 137.1-139.3 137.1S371.9 460.8 371.9 385z m232.2 0c0-50.5-41.6-91.4-92.9-91.4-51.3 0-92.9 40.9-92.9 91.4 0 50.5 41.6 91.4 92.9 91.4 51.3 0 92.9-40.9 92.9-91.4z m0 0M818.4 281.6c-3-3.6-9.5-10.3-19.3-19.2-16.7-15.2-36.5-30.4-59.4-44.6-65.4-40.7-141.7-65-228.5-65-86.7 0-163.1 24.4-228.4 65-22.9 14.2-42.8 29.4-59.4 44.6-9.8 8.9-16.3 15.7-19.3 19.2-8.2 9.7-22.8 11-32.7 2.9-9.8-8.1-11.2-22.5-3-32.2 4.3-5 12.1-13.3 23.5-23.6 18.7-17 40.7-33.9 66.1-49.7 72.4-45 157.2-72.1 253.2-72.1 96.1 0 180.8 27 253.3 72.1 25.4 15.8 47.4 32.7 66.1 49.7 11.4 10.3 19.2 18.6 23.5 23.6 8.2 9.7 6.9 24.1-3 32.2-9.8 8.1-24.5 6.8-32.7-2.9z m0 0"  horiz-adv-x="1024" />

    
    <glyph glyph-name="jiazai" unicode="&#58940;" d="M899.846 608.287c8.837-15.305 3.593-34.876-11.713-43.713l-152.42-88c-15.306-8.836-34.876-3.592-43.713 11.713-8.837 15.306-3.593 34.876 11.713 43.713l152.42 88c15.306 8.837 34.877 3.593 43.713-11.713zM512 832c17.673 0 32-14.327 32-32v-176c0-17.673-14.327-32-32-32-17.673 0-32 14.327-32 32V800c0 17.673 14.327 32 32 32z m448-448c0-17.673-14.327-32-32-32H752c-17.673 0-32 14.327-32 32 0 17.673 14.327 32 32 32h176c17.673 0 32-14.327 32-32zM736-3.98c-15.305-8.836-34.876-3.592-43.713 11.713-8.836 15.306-3.592 34.877 11.713 43.713 15.305 8.837 34.876 3.593 43.713-11.713 8.836-15.305 3.592-34.876-11.713-43.712zM408 564.134c-15.305-8.836-34.876-3.592-43.713 11.713l-88 152.42c-8.836 15.306-3.592 34.877 11.713 43.713 15.305 8.837 34.876 3.593 43.713-11.712l88-152.42c8.836-15.306 3.592-34.877-11.713-43.714zM305.886 503c-8.837-15.305-28.407-20.55-43.713-11.713l-126.44 73c-15.305 8.837-20.549 28.408-11.712 43.713 8.836 15.305 28.407 20.55 43.712 11.713l126.44-73c15.306-8.837 20.55-28.408 11.713-43.713zM244 384c0-17.673-14.327-32-32-32H96c-17.673 0-32 14.327-32 32 0 17.673 14.327 32 32 32h116c17.673 0 32-14.327 32-32z m9.904-148.713c8.836-15.305 3.592-34.876-11.713-43.713l-74.478-43c-15.306-8.836-34.876-3.592-43.713 11.713-8.837 15.306-3.593 34.876 11.713 43.713l74.478 43c15.305 8.837 34.876 3.593 43.713-11.713zM735.713 772c15.305-8.837 20.55-28.407 11.713-43.713l-88-152.42c-8.837-15.306-28.408-20.55-43.713-11.713-15.306 8.836-20.55 28.407-11.713 43.713l88 152.42c8.837 15.306 28.407 20.55 43.713 11.713z m-387.75-671.349c15.305-8.837 20.55-28.407 11.713-43.713l-28-48.497c-8.837-15.306-28.408-20.55-43.713-11.713-15.306 8.836-20.55 28.407-11.713 43.713l28 48.497c8.837 15.306 28.407 20.55 43.713 11.713zM512 26c17.673 0 32-14.327 32-32v-26c0-17.673-14.327-32-32-32-17.673 0-32 14.327-32 32v26c0 17.673 14.327 32 32 32z"  horiz-adv-x="1024" />

    
    <glyph glyph-name="pintuanchenggong" unicode="&#58941;" d="M512 896a512 512 0 1 1 512-512A512 512 0 0 1 512 896z m292.318-353.99L450.082 180.057a34.42 34.42 0 0 0-4.164-5.144 35.154 35.154 0 0 0-49.73-0.551l-0.552 0.55-175.954 178.711a36.746 36.746 0 0 0 0 51.016 35.154 35.154 0 0 0 49.792 0.551l0.55-0.55 150.294-152.62 333.78 341.067a35.154 35.154 0 0 0 49.73 0.551l0.55-0.55a36.746 36.746 0 0 0 0-51.078z"  horiz-adv-x="1024" />

    
    <glyph glyph-name="qiandai" unicode="&#58942;" d="M684.8 652.8c32 19.2 64 38.4 83.2 64 25.6 25.6 32 76.8 19.2 108.8-12.8 38.4-44.8 64-83.2 64H320C288 896 249.6 864 236.8 832c-12.8-38.4-6.4-83.2 19.2-108.8 25.6-25.6 51.2-51.2 83.2-64C192 576 89.6 403.2 89.6 198.4c0-83.2 19.2-153.6 51.2-224 25.6-64 89.6-96 160-96H736c70.4 0 134.4 32 160 96 32 70.4 51.2 147.2 51.2 230.4-6.4 198.4-115.2 371.2-262.4 448zM313.6 774.4c-6.4 6.4-6.4 6.4 0 6.4 0 0 6.4 6.4 12.8 6.4h384c6.4 0 12.8 0 12.8-6.4V768c-51.2-44.8-128-70.4-211.2-70.4-83.2 0-153.6 32-198.4 76.8zM819.2 0c-12.8-38.4-51.2-57.6-89.6-57.6H294.4c-38.4 0-76.8 19.2-89.6 57.6-25.6 57.6-38.4 128-38.4 198.4 0 230.4 153.6 416 345.6 416 192 0 345.6-185.6 345.6-416 0-70.4-12.8-140.8-38.4-198.4zM652.8 448c-12.8 0-19.2-6.4-25.6-12.8L524.8 288l-96 147.2c-6.4 6.4-12.8 12.8-25.6 12.8s-19.2-6.4-19.2-19.2c0-6.4 6.4-12.8 6.4-19.2L480 275.2h-51.2c-12.8 0-25.6 0-25.6-12.8s6.4-12.8 25.6-12.8h64V192h-64c-12.8 0-25.6 0-25.6-12.8s6.4-12.8 25.6-12.8h64v-83.2c0-12.8 12.8-19.2 32-19.2 12.8 0 32 6.4 32 19.2v83.2h76.8c12.8 0 19.2 6.4 25.6 12.8 0 12.8-6.4 12.8-25.6 12.8h-83.2v57.6h76.8c12.8 0 19.2 6.4 25.6 12.8 0 12.8-6.4 12.8-25.6 12.8H576l89.6 134.4c6.4 6.4 6.4 12.8 6.4 19.2 0 12.8-6.4 19.2-19.2 19.2z"  horiz-adv-x="1024" />

    
    <glyph glyph-name="pintuan" unicode="&#58943;" d="M833.5 736.1l26.4-703.7H162.1l26.4 703.7h645m9.8 62.1H178.6c-27.9 0-50.7-22.3-51.7-49.7L100 24.1c-1-29.5 22.2-53.8 51.7-53.8h719.5c29.5 0 52.7 24.3 51.7 53.8L896 748.5c-1.6 27.4-24.8 49.7-52.7 49.7z m0 0M510.9 314.4c-108.5 0-196.4 88-196.4 196.6h-62c0-143.3 115.8-259.8 258.4-259.8 142.7 0 258.4 116.4 258.4 259.8h-62c0-108.7-87.8-196.6-196.4-196.6z m0 0"  horiz-adv-x="1024" />

    
    <glyph glyph-name="quanxianguanlisuozi" unicode="&#58944;" d="M815.266 672.69c-145.8 7.1-253.1 74-292.5 102.3-5.1 3.7-11.1 5.5-17 5.5-7.4 0-14.7-2.8-20.4-8.2-81.6-79.5-236.9-95-300-97.9-15.6-0.7-27.8-13.6-27.8-29.1v-282.7c0-39.5 20.6-93.1 53.4-147.6 2.4-5 7.4-8.5 13.4-8.5 8.2 0 14.9 6.7 14.9 14.9 0 3.8-1.5 7.1-3.8 9.7l0.1 0.1c-29.9 49.4-48.8 97.3-48.8 131.4v282.6c66.2 3.1 230.1 19.5 319 106.2 44.3-32 156-100.3 308.1-107.9v-290.7c0-93-172.9-338.6-311.3-338.6-58.5 0-130.5 51.3-188.7 113.2-0.1 0.1-0.3 0.1-0.4 0.2-2.7 3.3-6.7 5.6-11.4 5.6-8.2 0-14.9-6.7-14.9-14.9 0-4.2 1.8-7.9 4.6-10.7 0 0 0-0.1 0.1-0.1 63.9-68.7 142-122.5 210.7-122.5 158.6 0 340.4 261 340.5 367.8v290.7c-0.1 15.6-12.2 28.4-27.8 29.2zM604.266 475.19c0 57.3-46.7 104-104 104s-104-46.7-104-104c0-52.5 39.1-96 89.7-103v-142.2c0-7.9 6.4-14.3 14.3-14.3s14.3 6.4 14.3 14.3v142.2c50.6 7 89.7 50.5 89.7 103z m-104-75.4c-41.6 0-75.3 33.7-75.3 75.3s33.7 75.3 75.3 75.3 75.3-33.7 75.3-75.3-33.7-75.3-75.3-75.3z"  horiz-adv-x="1024" />

    
    <glyph glyph-name="shanchu" unicode="&#58945;" d="M814.29 759.433H207.664c-55.752 0-101.274-13.3-101.274-56.776v-26.086h808.663v26.086c0.511 42.965-45.011 56.776-100.763 56.776M723.245 704.192l-19.948 140.66c-3.58 27.62-29.667 50.125-57.287 50.125H376.456c-28.132 0-53.707-22.505-57.799-50.126l-19.948-141.17c-3.58-27.621 15.856-22.506 43.477-22.506h337.07c28.133 0.511 47.57-4.604 43.989 23.017z m-360.6 28.643L377.99 844.34h265.463l15.344-111.505H362.645zM831.17 613.658H190.785c-36.827 0-64.959-30.177-61.378-67.005l55.24-607.648c3.58-36.827 36.316-67.005 73.655-67.005h505.35c36.828 0 70.074 30.178 73.655 67.005l55.24 607.137c3.58 36.827-24.04 67.516-61.378 67.516zM376.456-57.415H245.514l-43.476 592.816h174.418v-592.816z m221.474 0H423.512V535.401H597.93v-592.816z m177.487 0H646.01V535.401h172.883l-43.476-592.816z"  horiz-adv-x="1024" />

    
    <glyph glyph-name="shanchu1" unicode="&#58946;" d="M799.2 21.6c0-34.4-28.001-62.4-62.4-62.4H287.2c-34.4 0-62.4 28-62.4 62.4V684h574.4v-662.4zM349.6 796c0 7.2 5.6 12.8 12.8 12.8h300c7.2 0 12.8-5.6 12.8-12.8v-37.6H349.6V796z m636.8-37.6H749.6V796c0 48.001-39.2 87.2-87.2 87.2h-300c-48 0-87.2-39.199-87.2-87.2v-37.6H37.6C16.8 758.4 0 741.6 0 720.8s16.8-37.6 37.6-37.6h112v-661.6c0-76 61.6-137.6 137.6-137.6h449.6c76 0 137.6 61.6 137.6 137.6V684h112c20.8 0 37.6 16.8 37.6 37.6s-16.8 36.8-37.6 36.8zM512 72c20.8 0 37.6 16.8 37.6 37.6v400c0 20.8-16.8 37.6-37.6 37.6s-37.6-16.8-37.6-37.6v-400c0-20.8 16.8-37.6 37.6-37.6m-175.2 0c20.8 0 37.6 16.8 37.6 37.6v400c0 20.8-16.8 37.6-37.6 37.6s-37.6-16.8-37.6-37.6v-400c0.8-20.8 17.6-37.6 37.6-37.6m350.4 0c20.8 0 37.6 16.8 37.6 37.6v400c0 20.8-16.8 37.6-37.6 37.6s-37.6-16.8-37.6-37.6v-400c0-20.8 16.8-37.6 37.6-37.6"  horiz-adv-x="1024" />

    
    <glyph glyph-name="qunzu_o" unicode="&#58947;" d="M682.667 162.133L588.8 256H307.2l-93.867-93.867v-76.8h469.334v76.8z m42.666 17.067v-136.533H170.667V179.2l119.466 119.467H601.6L725.333 179.2zM768 85.333h42.667v76.8L716.8 256h-17.067L665.6 298.667h72.533L857.6 179.2v-136.533h-85.333L768 85.333zM533.333 345.6c25.6 8.533 46.934 21.333 64 38.4 46.934 8.533 85.334 51.2 85.334 102.4v85.333c0 51.2-38.4 93.867-85.334 102.4-17.066 17.067-38.4 29.867-64 38.4C546.133 716.8 563.2 716.8 576 716.8c81.067 8.533 149.333-59.733 149.333-140.8v-85.333c0-81.067-68.266-149.334-149.333-149.334-17.067 0-29.867 4.267-42.667 4.267zM448 725.333c81.067 0 149.333-68.266 149.333-149.333v-85.333c0-81.067-68.266-149.334-149.333-149.334S298.667 409.6 298.667 490.667V576c0 81.067 68.266 149.333 149.333 149.333z m0-42.666c-59.733 0-106.667-46.934-106.667-106.667v-85.333C341.333 430.933 388.267 384 448 384s106.667 46.933 106.667 106.667V576c0 59.733-46.934 106.667-106.667 106.667z"  horiz-adv-x="1024" />

    
    <glyph glyph-name="pailie" unicode="&#58948;" d="M386.133-8.533c-12.8 0-21.333 8.533-21.333 21.333V674.133L192 501.333c-8.533-8.533-21.333-8.533-29.867 0-8.533 8.534-8.533 21.334 0 29.867L371.2 742.4c6.4 4.267 14.933 6.4 23.467 4.267 8.533-4.267 12.8-10.667 12.8-19.2V12.8c0-12.8-8.534-21.333-21.334-21.333z m266.667 0c-2.133 0-6.4 0-8.533 2.133-8.534 4.267-12.8 10.667-12.8 19.2V727.467c0 12.8 8.533 21.333 21.333 21.333s21.333-8.533 21.333-21.333V64l172.8 172.8c8.534 8.533 21.334 8.533 29.867 0 8.533-8.533 8.533-21.333 0-29.867l-209.067-211.2c-4.266-2.133-8.533-4.266-14.933-4.266z"  horiz-adv-x="1024" />

    
    <glyph glyph-name="miaosha" unicode="&#58949;" d="M370.11 833.219a23.014 23.014 0 0 0 28.344-16.041c3.358-12.258-3.789-24.945-16.067-28.299a496.538 496.538 0 0 1-120.898-51.783 502.876 502.876 0 0 1-103.552-82.028 23.076 23.076 0 0 0-32.564-0.67c-9.164 8.847-9.466 23.423-0.609 32.568a545.69 545.69 0 0 0 113.08 89.595A541.317 541.317 0 0 0 370.11 833.219z m-47.775-849.71a23.076 23.076 0 0 0-9.406 31.226 23.112 23.112 0 0 0 31.278 9.4 361.19 361.19 0 0 1 83.272-32.388c28.406-7.2 58.22-10.983 89.068-10.983 100.126 0 190.848 40.56 256.465 106.066 65.664 65.562 106.23 156.063 106.23 256.097 0 99.958-40.566 190.53-106.23 256.093-65.612 65.5-156.339 106.06-256.465 106.06-100.189 0-190.91-40.555-256.523-106.122-65.612-65.5-106.24-156.011-106.24-256.03 0-43.976 7.819-86.124 22.175-124.975a362.173 362.173 0 0 1 64.149-109.716 22.835 22.835 0 0 0-2.632-32.323c-9.651-8.238-24.192-7.08-32.374 2.555-31.037 36.414-55.782 78.193-72.52 123.628a406.364 406.364 0 0 0-25.047 140.825c0 112.707 45.82 214.805 119.798 288.722C301.312 705.5 403.58 751.186 516.536 751.186c112.896 0 215.158-45.68 289.204-119.542C879.718 557.722 925.48 455.63 925.48 342.922c0-112.773-45.763-214.87-119.798-288.727-73.984-73.856-176.25-119.598-289.147-119.598a412.032 412.032 0 0 0-100.25 12.38 409.487 409.487 0 0 0-93.951 36.531zM480.87 607.8a23.158 23.158 0 0 0 23.148 23.117 23.148 23.148 0 0 0 23.091-23.117v-241.817h209.234c12.774 0 23.096-10.312 23.096-23.056s-10.322-23.122-23.096-23.122H504.018a23.158 23.158 0 0 0-23.148 23.122V607.8z m427.449 79.166a23.06 23.06 0 0 0-0.61-32.569 23.148 23.148 0 0 0-32.62 0.671 501.146 501.146 0 0 1-103.49 82.028 497.649 497.649 0 0 1-120.898 51.783 22.938 22.938 0 0 0-16.067 28.299 22.984 22.984 0 0 0 28.345 16.04 542.413 542.413 0 0 0 132.26-56.657 547.313 547.313 0 0 0 113.08-89.595z"  horiz-adv-x="1024" />

    
    <glyph glyph-name="remen" unicode="&#58950;" d="M495.466-128c-239.13 0-408.472 167.591-408.472 398.342 0 122.567 72.664 254.639 75.791 260.017 6.379 11.256 18.885 17.634 31.767 16.133 12.882-1.75 23.138-11.13 26.765-23.512 0.25-0.626 19.886-74.916 45.65-116.064 17.26-27.765 35.019-47.15 54.78-60.908-13.383 58.782-23.638 147.205-7.004 237.755C360.393 832.773 554.248 892.43 562.503 894.807c10.63 3.002 22.137 0.25 30.266-7.254s11.757-18.76 9.505-29.641c-0.25-1.751-32.392-176.096 35.52-324.552 6.128-13.507 14.758-29.14 24.013-44.9 2.626 22.513 7.004 44.9 13.132 66.787 25.014 88.048 89.424 118.19 92.175 119.315 10.756 4.753 23.263 3.252 32.518-4.002 9.38-7.254 13.757-19.26 11.631-31.017-0.375-2.251-9.38-62.159 41.273-147.205 45.65-76.917 58.657-126.57 58.657-222.246C911.068 39.466 736.473-128 495.466-128zM188.8 420.549c-18.385-46.9-28.015-96.803-28.14-147.205 0-187.853 138.45-324.302 334.932-324.302 197.983 0 341.686 136.324 341.686 324.302 0 81.294-9.88 118.69-48.276 183.35-25.639 43.148-38.396 81.794-44.149 112.81-7.004-11.505-12.382-23.887-15.884-36.77-18.76-66.16-13.882-143.827-13.882-144.703 0.875-13.757-7.504-26.514-20.511-31.267a30.502 30.502 0 0 0-35.27 11.256c-2.376 3.252-57.03 81.545-81.044 134.448-49.902 109.31-49.277 227.624-44.149 295.661-50.777-29.64-128.695-96.427-153.708-231.876-24.264-132.072 23.012-270.147 23.387-271.398a31.33 31.33 0 0 0-5.628-31.767c-7.504-8.755-19.135-12.507-30.266-9.755-3.752 1-96.553 23.638-152.583 113.061a374.252 374.252 0 0 0-26.515 54.155z m0 0"  horiz-adv-x="1024" />

    
    <glyph glyph-name="shoucang" unicode="&#58951;" d="M888.156 708.649a254.1 254.1 0 0 1-359.823 0L336.64 516.608a26.01 26.01 0 0 1 36.741-36.818l191.693 192.046a202.66 202.66 0 0 0 286.341-286.863L509.44 42.368l-341.97 342.6a202.752 202.752 0 0 0 245.422 318.576 26.02 26.02 0 0 1 26.276 44.918A254.771 254.771 0 0 1 130.724 348.16l360.345-361.011a25.943 25.943 0 0 1 36.742 0L888.156 348.16a255.534 255.534 0 0 1 0 360.489z m-106.214-247.88a25.933 25.933 0 0 1 33.075 16.026 130.202 130.202 0 0 1-122.665 172.882 26.03 26.03 0 0 1 0-52.065 78.136 78.136 0 0 0 73.6-103.701 26.04 26.04 0 0 1 15.99-33.142z"  horiz-adv-x="1024" />

    
    <glyph glyph-name="shenhezhong" unicode="&#58952;" d="M467.62 26.75H214.66c-27.18 0-49.28 22.1-49.28 49.28V717.5c0 27.18 22.1 49.28 49.28 49.28h495.36c27.18 0 49.29-22.1 49.29-49.28v-291.61c0-17.15 13.9-31.05 31.05-31.05s31.05 13.9 31.05 31.05V717.5c0 61.41-49.97 111.37-111.38 111.37H214.66c-61.41 0-111.37-49.97-111.37-111.37v-641.48c0-61.41 49.97-111.37 111.37-111.37h252.96c17.15 0 31.05 13.9 31.05 31.05-0.01 17.15-13.9 31.05-31.05 31.05zM268.17 629.11c-16.5 0-29.87-13.37-29.87-29.87v-2.35c0-16.5 13.37-29.87 29.87-29.87h325.32c16.5 0 29.87 13.37 29.87 29.87v2.35c0 16.5-13.37 29.87-29.87 29.87H268.17zM483.8 459.85H268.17c-16.5 0-29.87-13.37-29.87-29.87v-2.35c0-16.5 13.37-29.87 29.87-29.87H483.8c16.5 0 29.87 13.37 29.87 29.87v2.35c0 16.49-13.37 29.87-29.87 29.87z m300.61-306.29H746.4v72.41c0 17.15-13.9 31.05-31.05 31.05s-31.05-13.9-31.05-31.05v-103.45c0-12.86 7.82-23.9 18.97-28.61 3.71-1.57 7.8-2.44 12.09-2.44h69.05c17.15 0 31.05 13.9 31.05 31.05 0 17.14-13.9 31.04-31.05 31.04zM720.35 339.98c-110.58 0-200.55-89.97-200.55-200.56 0-110.58 89.97-200.55 200.55-200.55 110.59 0 200.56 89.97 200.56 200.55 0 110.6-89.96 200.56-200.56 200.56z m0-339.01c-76.34 0-138.46 62.11-138.46 138.46 0 76.35 62.11 138.47 138.46 138.47 76.35 0 138.47-62.11 138.47-138.47 0-76.35-62.11-138.46-138.47-138.46z"  horiz-adv-x="1024" />

    
    <glyph glyph-name="shoucang1" unicode="&#58953;" d="M830.7-79.6L519.1 84.2 207.6-79.6l59.5 346.9L15 513.1l348.3 50.6L519.1 879.3l155.8-315.6 348.3-50.6-252-245.7 59.5-347zM102.3 484.7l208.4-203.2-49.2-286.9L519.1 130l257.6-135.4-49.2 286.9L936 484.7l-288 41.9-128.8 261-128.8-261-288.1-41.9z"  horiz-adv-x="1024" />

    
    <glyph glyph-name="suozi" unicode="&#58954;" d="M519.101 748.542c101.788 0 184.639-82.85 184.639-184.638 0-14.203 9.468-23.672 23.671-23.672s23.672 9.469 23.672 23.672c0 127.826-104.155 231.981-231.982 231.981s-231.98-104.155-231.98-231.981v-127.827h-71.015c-26.04 0-47.344-21.304-47.344-47.343v-430.822c0-26.039 21.305-47.343 47.344-47.343H819.73c26.039 0 47.343 21.304 47.343 47.343V388.734c0 26.039-21.304 47.343-47.343 47.343H334.463V563.904c0 101.788 82.85 184.638 184.638 184.638z m300.63-359.808v-430.822H216.105V388.734H819.73z"  horiz-adv-x="1024" />

    
    <glyph glyph-name="shoucang_o" unicode="&#58955;" d="M512 119.467l-238.933-85.334 8.533 251.734-153.6 204.8L371.2 563.2 512 768l140.8-209.067L896 490.667 742.4 290.133l8.533-251.733L512 119.467z m0 51.2L699.733 102.4l-4.266 200.533L819.2 460.8l-192 55.467L512 686.933l-110.933-166.4-192-55.466L332.8 307.2l-4.267-200.533 183.467 64z"  horiz-adv-x="1024" />

    
    <glyph glyph-name="shouye" unicode="&#58956;" d="M816.4 350.9v-337.4c0-28.7-23.2-51.9-51.9-51.9H609.2V222.1c0 14.3-11.6 25.9-25.9 25.9H427.6c-14.3 0-25.9-11.6-25.9-25.9v-260.4H246.3c-28.7 0-51.9 23.2-51.9 51.9V350.9H142v-389.1c0-28.7 16.7-51.9 45.4-51.9h221.1v0.8h45.1V209.1h103l0.8-298.3h45.1v-0.8h221.1c28.7 0 45.4 23.2 45.4 51.9v389h-52.6zM505.4 832.2c-6.9 0-13.8-2.5-18.6-7.6L41.7 364.3c-10-10.3-9.7-26.7 0.6-36.7 5-4.9 11.5-7.3 18-7.3 6.8 0 13.6 2.6 18.7 7.9l426.4 441.1 426.4-441.1c5.1-5.3 11.9-7.9 18.6-7.9 6.5 0 13 2.4 18 7.3 10.3 10 10.6 26.4 0.6 36.7L524.1 824.7c-4.9 5-11.8 7.5-18.7 7.5z"  horiz-adv-x="1024" />

    
    <glyph glyph-name="sousuo" unicode="&#58957;" d="M665.254 228.608a51.2 51.2 0 0 0 70.272 4.045l2.1-1.882 219.072-206.297a51.2 51.2 0 0 0-68.096-76.416l-2.1 1.868-219.084 206.298a51.2 51.2 0 0 0-2.176 72.384zM446.272 844.8c218.176 0 395.072-176.883 395.072-395.072 0-92.608-31.872-177.766-85.235-245.12 2.06-1.357-63.36-66.778-64.832-64.717a392.742 392.742 0 0 0-245.005-85.235C228.083 54.656 51.2 231.552 51.2 449.728 51.2 667.917 228.083 844.8 446.272 844.8z m-4.672-89.6c-166.131 0-300.8-134.669-300.8-300.8s134.669-300.8 300.8-300.8 300.8 134.669 300.8 300.8-134.669 300.8-300.8 300.8z"  horiz-adv-x="1024" />

    
    <glyph glyph-name="sousuo1" unicode="&#58958;" d="M628.093 732c146.05 0 264.887-118.837 264.887-264.892 0-75.23-31.684-143.073-82.212-191.348L953.21 89.21c11.095-14.506 8.311-35.296-6.291-46.42-5.961-4.604-13.044-6.791-20.033-6.791-9.998 0-19.83 4.506-26.353 13.045L757.592 236.26c-38.343-21.59-82.451-34.044-129.499-34.044-146.053 0-264.89 118.838-264.89 264.892C363.202 613.163 482.04 732 628.092 732z m-165.52-562.397c17.655 0 31.967-14.312 31.967-31.966 0-17.654-14.312-31.966-31.966-31.966H96.966C79.312 105.671 65 119.983 65 137.637c0 17.654 14.312 31.966 31.966 31.966h365.608z m165.551 496.205c-109.566 0-198.67-89.099-198.67-198.664 0-109.566 89.104-198.67 198.67-198.67 109.566 0 198.67 89.104 198.67 198.67 0 109.565-89.104 198.664-198.67 198.664zM232.82 417.338c17.654 0 31.966-14.312 31.966-31.966 0-17.655-14.312-31.966-31.966-31.966H96.966C79.312 353.406 65 367.717 65 385.372c0 17.654 14.312 31.965 31.966 31.965H232.82z m59.936 248.733c17.654 0 31.966-14.312 31.966-31.966 0-17.654-14.312-31.966-31.966-31.966H96.966C79.312 602.14 65 616.451 65 634.105c0 17.654 14.312 31.966 31.966 31.966h195.79z"  horiz-adv-x="1024" />

    
    <glyph glyph-name="tongji" unicode="&#58959;" d="M341.333-42.667H128A42.667 42.667 0 0 0 85.333 0V490.667A42.667 42.667 0 0 0 128 533.333h213.333V768A42.667 42.667 0 0 0 384 810.667h256A42.667 42.667 0 0 0 682.667 768v-405.333H896a42.667 42.667 0 0 0 42.56-39.467l0.107-3.2v-320a42.667 42.667 0 0 0-39.467-42.56l-3.2-0.107H341.333z m0 512h-192v-448h192v448z m533.334-170.666h-192v-277.334h192V298.667z m-256 448H405.333v-725.334h213.334V746.667z"  horiz-adv-x="1024" />

    
    <glyph glyph-name="kanjia1" unicode="&#58960;" d="M329.329 170.086L86.344 413.071c-11.705 11.705-21.32 37.407-20.163 53.924l19.2 275.354c0.85 12.196 12.309 23.531 24.515 24.248l271.145 15.944c16.67 1.003 42.424-8.837 54.18-20.593l250.02-250.02 28.958 28.959-250.02 250.01c-20.214 20.224-57.047 34.201-85.535 32.522L107.49 807.475c-33.003-1.935-60.661-29.296-62.965-62.29l-19.2-275.353c-1.987-28.6 11.786-65.465 32.061-85.73L300.37 141.117l28.959 28.97zM946.135 324.28L829.911 440.504l-28.959-28.958 116.224-116.224c7.977-7.988 7.977-20.982 0-28.97L597.28-53.544a20.51 20.51 0 0 0-28.959 0L441.21 73.554l-28.958-28.959 127.099-127.099c11.571-11.57 27.003-17.95 43.438-17.95s31.867 6.38 43.438 17.95l319.898 319.898a61.501 61.501 0 0 1 0.01 86.886zM238.09 610.191a107.848 107.848 0 0 1-31.795-76.759c0-29 11.295-56.258 31.785-76.759 20.5-20.5 47.77-31.795 76.77-31.795s56.258 11.295 76.758 31.795a107.848 107.848 0 0 1 31.796 76.76c0 28.999-11.295 56.258-31.785 76.758-20.5 20.5-47.77 31.796-76.77 31.796s-56.258-11.295-76.759-31.796z m144.354-76.759c0-18.053-7.035-35.02-19.805-47.79-12.769-12.769-29.737-19.804-47.79-19.804s-35.03 7.035-47.8 19.804a67.144 67.144 0 0 0-19.794 47.79c0 18.053 7.035 35.031 19.804 47.8 12.77 12.77 29.737 19.805 47.79 19.805s35.031-7.035 47.8-19.804a67.154 67.154 0 0 0 19.795-47.8zM236.012-7.127l632.75 632.76 28.958-28.969-632.75-632.75z"  horiz-adv-x="1024" />

    
    <glyph glyph-name="tishengfenzhi" unicode="&#58961;" d="M259.748 272.74v-279.015h-160V143.264l160 129.477z m138.996 84.493l49.951-61.641a45.56 45.56 0 0 1 5.111-8.17l0.514-0.643 10.966-13.533a45.418 45.418 0 0 1 22.462-14.984v-264.537h-160V299.78l70.996 57.452z m316.004 63.287v-426.795h-160V291.04l160 129.48z m228 152.67v-579.465h-160V443.71l160 129.48z m1.213 200.698a28.871 28.871 0 0 0 16.756-7.228c6.144-5.317 10.03-13.172 10.03-21.935 0-2.387-0.288-4.707-0.832-6.927l-9.964-113.874c-1.395-15.956-15.461-27.758-31.417-26.363-15.955 1.396-27.758 15.462-26.362 31.418l2.424 27.705-391.449-316.86a38.985 38.985 0 0 0-7.321-7.812l-0.015-0.012c-12.882-10.427-30.394-11.298-43.955-3.514a38.8 38.8 0 0 0-12.233 10.016 39.162 39.162 0 0 0-3.818 5.65l-54.97 67.849-273.35-221.264c-16.724-13.538-41.255-10.96-54.8 5.757-13.537 16.707-10.967 41.224 5.74 54.761l0.014 0.012 301.638 244.16a38.79 38.79 0 0 0 19.307 8.336c13.885 2.954 28.892-1.808 38.441-13.594l58.332-71.997 367.598 297.553h-22.007c-16.017 0-29 12.983-29 29 0 16.016 12.983 29 29 29h105.667a29.092 29.092 0 0 0 6.546 0.163z"  horiz-adv-x="1024" />

    
    <glyph glyph-name="tuandui" unicode="&#58962;" d="M1024.00194 25.6a339.968 339.968 0 0 0-5.12-51.2h-102.4a209.408 209.408 0 0 1 5.12 51.2 204.8 204.8 0 0 1-198.656 204.8 383.488 383.488 0 0 0 45.056-179.2 379.392 379.392 0 0 0-7.68-76.8H653.82594a293.376 293.376 0 0 1 11.776 76.8 281.6 281.6 0 0 1-563.2 0 293.376 293.376 0 0 1 11.776-76.8H7.68194a379.392 379.392 0 0 0-7.68 76.8 384.512 384.512 0 0 0 222.208 348.16 230.4 230.4 0 1 0 387.584 209.92 204.8 204.8 0 0 0 256-315.904A307.2 307.2 0 0 0 1024.00194 25.6z m-640 665.6a128 128 0 1 1 128-128 128 128 0 0 1-128 128z m332.8-153.6a102.4 102.4 0 1 1 102.4-102.4 102.4 102.4 0 0 1-102.4 102.4z"  horiz-adv-x="1024" />

    
    <glyph glyph-name="shouye-xianxing" unicode="&#58963;" d="M397.584-128V119.834a57.958 57.958 0 0 0 58.01 58.035h112.742a57.984 57.984 0 0 0 58.01-58.035V-128H397.583zM570.051 874.7a82.15 82.15 0 0 1-110.336 0L13.405 451.02a41.165 41.165 0 0 1 55.142-61.132l7.091 6.733v-442.189a82.304 82.304 0 0 1 82.33-82.432h239.616V119.834a57.958 57.958 0 0 0 58.01 58.035h112.742a57.984 57.984 0 0 0 58.01-58.035V-128h245.299a82.38 82.38 0 0 1 82.38 82.432V391.219c18.279-16.537 44.237-15.283 59.444 1.664a41.165 41.165 0 0 1-2.97 58.138L570.051 874.7z"  horiz-adv-x="1024" />

    
    <glyph glyph-name="shezhi" unicode="&#58964;" d="M512.26 192c-108.8 0-192 83.2-192 192s83.2 192 192 192 192-83.2 192-192-83.2-192-192-192z m0 320c-70.4 0-128-57.6-128-128s57.6-128 128-128 128 57.6 128 128-57.6 128-128 128zM640.26-128h-256c-19.2 0-32 12.8-32 32V25.6c-25.6 12.8-51.2 25.6-70.4 38.4l-102.4-64c-12.8-6.4-32-6.4-44.8 12.8l-128 224c-12.8 19.2-6.4 38.4 12.8 44.8l102.4 64v76.8l-102.4 64c-19.2 6.4-25.6 25.6-12.8 44.8l128 224c6.4 12.8 25.6 19.2 44.8 6.4l102.4-64c19.2 12.8 44.8 32 70.4 38.4V864c0 19.2 12.8 32 32 32h256c19.2 0 32-12.8 32-32v-121.6c25.6-12.8 51.2-25.6 70.4-38.4l102.4 64c12.8 6.4 32 6.4 44.8-12.8l128-224c12.8-19.2 6.4-38.4-12.8-44.8l-102.4-64v-76.8l102.4-64c12.8-6.4 19.2-25.6 12.8-44.8l-128-224c-6.4-12.8-25.6-19.2-44.8-12.8l-102.4 64c-19.2-12.8-44.8-32-70.4-38.4V-96c0-19.2-12.8-32-32-32z m-224 64h192V44.8c0 12.8 6.4 25.6 19.2 32 32 12.8 64 32 89.6 51.2 12.8 6.4 25.6 6.4 38.4 0l96-57.6 96 166.4-96 57.6c-12.8 12.8-19.2 25.6-12.8 38.4 0 19.2 6.4 32 6.4 51.2s0 32-6.4 51.2c0 12.8 6.4 25.6 12.8 32l96 57.6-96 166.4-96-57.6c-12.8-6.4-25.6-6.4-38.4 0-25.6 19.2-57.6 38.4-89.6 51.2-12.8 12.8-19.2 25.6-19.2 38.4V832h-192v-108.8c0-12.8-6.4-25.6-19.2-32-32-12.8-64-32-89.6-51.2-12.8-6.4-25.6-6.4-38.4 0l-96 51.2-96-166.4 96-57.6c12.8-6.4 19.2-19.2 12.8-32 0-19.2-6.4-32-6.4-51.2 0-19.2 0-32 6.4-51.2 6.4-12.8 0-25.6-12.8-32l-96-57.6 96-166.4 96 57.6c12.8 6.4 25.6 6.4 38.4 0 25.6-19.2 57.6-38.4 89.6-51.2 12.8-6.4 19.2-19.2 19.2-32V-64z"  horiz-adv-x="1024" />

    
    <glyph glyph-name="tianjiadizhi" unicode="&#58965;" d="M524.552 119.081C622.328 234.694 747.19 409.765 747.19 493.667c0 121.559-99.758 220.656-222.638 220.656s-222.637-99.097-222.637-220.656c0-83.241 124.862-258.973 222.637-374.586m0-72.01S254.348 345.683 254.348 494.328c0 147.984 120.898 268.222 270.204 268.222s270.204-120.238 270.204-268.222c0-148.645-270.204-447.257-270.204-447.257zM671.876 214.875c-12.552 4.624-19.159 17.837-14.534 30.39 4.624 12.552 17.837 19.158 30.39 14.534 73.992-25.765 122.88-68.707 122.88-117.595 0-79.278-128.166-143.36-286.06-143.36s-286.06 64.082-286.06 143.36c0 48.227 48.228 91.169 122.22 116.934 12.553 4.625 25.765-1.982 30.39-14.534 4.624-12.552-1.982-25.765-14.534-30.39-62.1-21.801-90.509-52.19-90.509-72.01 0-38.978 93.151-95.133 238.493-95.133s238.493 56.155 238.493 95.133c0 20.48-28.408 50.87-91.169 72.67M413.564 499.613H604.49c13.213 0 23.784 10.57 23.784 23.783s-10.57 23.783-23.784 23.783H413.564a23.684 23.684 0 0 1-23.783-23.783c0-12.552 10.57-23.783 23.783-23.783M492.841 611.262v-190.927c0-13.212 10.57-23.783 23.784-23.783s23.783 10.57 23.783 23.783V611.262c0 13.213-10.57 23.783-23.783 23.783s-23.784-10.57-23.784-23.783"  horiz-adv-x="1024" />

    
    <glyph glyph-name="weixuanzhong" unicode="&#58966;" d="M512.177-128C229.794-128 0 101.68 0 384.006S229.794 896 512.177 896s512.177-229.68 512.177-511.994S794.594-128 512.177-128z m0 974.531c-255.128 0-462.686-207.488-462.686-462.525S257.05-78.531 512.177-78.531s462.697 207.488 462.697 462.537S767.305 846.53 512.177 846.53z"  horiz-adv-x="1024" />

    
    <glyph glyph-name="xiala1" unicode="&#58967;" d="M786.135-128L0 658.135 237.865 896l548.27-546.583L1332.718 896l237.865-237.865L786.135-128z"  horiz-adv-x="1570" />

    
    <glyph glyph-name="shuoming" unicode="&#58968;" d="M544 896C281.6 896 64 678.4 64 416s217.6-480 480-480 480 217.6 480 480S806.4 896 544 896z m0-896c-230.4 0-416 185.6-416 416S313.6 832 544 832s416-185.6 416-416-185.6-416-416-416z m32 672v-384c0-19.2-12.8-32-32-32s-32 12.8-32 32V672c0 19.2 12.8 32 32 32s32-12.8 32-32z m0-512c0-19.2-12.8-32-32-32s-32 12.8-32 32 12.8 32 32 32 32-12.8 32-32z"  horiz-adv-x="1024" />

    
    <glyph glyph-name="wuliu" unicode="&#58969;" d="M416.88 102.3V592.46c0 29.82 24.26 54.08 54.08 54.08h471.329c29.82 0 54.08-24.26 54.08-54.08V102.3c0-29.82-24.26-54.08-54.08-54.08h-110.64v16.379c0 42.94-34.944 77.885-77.894 77.885s-77.89-34.94-77.89-77.885v-16.38H470.96c-29.82 0.001-54.08 24.26-54.08 54.08z m336.875 72.93c55.446 0 101.495-40.99 109.435-94.26h79.1c11.76 0 21.33 9.57 21.33 21.33V592.46c0 11.765-9.57 21.335-21.33 21.335H470.96c-11.76 0-21.33-9.57-21.33-21.335V102.3c0-11.76 9.57-21.33 21.33-21.33h173.365c7.94 53.27 53.99 94.26 109.43 94.26zM58.67 102.3V300.25c0 7.88 2.39 22.225 23.06 55.7 12.525 20.28 29.9 44.41 48.92 67.94 19.08 23.606 38.655 45.156 55.11 60.681 28.19 26.59 41.28 30 49.535 30H395.55c29.82 0 54.08-24.255 54.08-54.075V102.3c0-29.82-24.26-54.08-54.08-54.08h-54.08V64.6c0 42.94-34.946 77.885-77.895 77.885s-77.895-34.94-77.895-77.886v-16.38h-72.93c-29.82 0-54.08 24.26-54.08 54.08z m204.905 72.93c55.445 0 101.494-40.995 109.434-94.26h22.54c11.76 0 21.33 9.57 21.33 21.33V460.495c0 11.765-9.57 21.335-21.33 21.335H235.96c-1.58-0.505-10.23-4-31.545-24.74-15.455-15.04-33.61-35.39-51.115-57.295-17.57-21.975-33.425-44.21-44.66-62.6-17.03-27.885-17.22-36.585-17.22-36.945V102.3c0-11.76 9.566-21.33 21.33-21.33h41.396c7.934 53.27 53.984 94.26 109.429 94.26zM58.67 255.6v44.65c0 35.575 66.385 117.05 79.695 133.02l4.905 5.89h139.16c29.82 0 54.08-24.256 54.08-54.07v-75.415c0-29.815-24.26-54.075-54.08-54.075H58.67z m99.99 150.82c-17.825-21.815-34.19-44.175-46.495-63.575-20.515-32.34-20.745-42.19-20.745-42.595v-11.905h191.01c11.76 0 21.33 9.57 21.33 21.33V385.09c0 11.76-9.57 21.33-21.33 21.33H158.66z m-5.725-341.825c0 61.005 49.636 110.635 110.64 110.635s110.64-49.63 110.64-110.635S324.58-46.04 263.576-46.04s-110.64 49.63-110.64 110.635z m32.745 0.005c0-42.95 34.945-77.895 77.895-77.895s77.894 34.945 77.894 77.895c0 42.94-34.945 77.886-77.894 77.886S185.68 107.545 185.68 64.6z m457.44-0.005c0 61.005 49.63 110.635 110.635 110.635 61.01 0 110.64-49.63 110.64-110.635s-49.63-110.635-110.64-110.635c-61.005 0-110.635 49.63-110.635 110.635z m32.745 0.005c0-42.95 34.94-77.895 77.89-77.895s77.894 34.945 77.894 77.895c0 42.94-34.945 77.886-77.895 77.886s-77.89-34.941-77.89-77.886z"  horiz-adv-x="1024" />

    
    <glyph glyph-name="weixin2" unicode="&#58970;" d="M684.262 559.36c10.257 0 20.406-0.752 30.473-1.873-27.38 127.487-163.685 222.208-319.268 222.208-173.94 0-316.425-118.557-316.425-269.104 0-86.899 47.404-158.26 126.618-213.608l-31.648-95.185 110.616 55.469c39.581-7.835 71.338-15.89 110.838-15.89 9.93 0 19.775 0.49 29.54 1.258-6.183 21.155-9.764 43.313-9.764 66.302 0 138.238 118.714 250.424 269.02 250.424z m-170.136 85.79c23.825 0 39.608-15.673 39.608-39.483 0-23.716-15.783-39.608-39.608-39.608-23.717 0-47.514 15.892-47.514 39.608 0 23.81 23.797 39.484 47.514 39.484z m-221.454-79.09c-23.713 0-47.648 15.893-47.648 39.608 0 23.81 23.934 39.484 47.648 39.484 23.715 0 39.499-15.674 39.499-39.484 0-23.716-15.784-39.607-39.5-39.607zM973.06 312.74c0 126.504-126.594 229.62-268.774 229.62-150.553 0-269.128-103.116-269.128-229.62 0-126.722 118.576-229.62 269.128-229.62 31.511 0 63.294 7.945 94.942 15.877l86.792-47.525-23.797 79.073C925.737 178.194 973.06 241.38 973.06 312.74z m-356.033 39.593c-15.755 0-31.648 15.674-31.648 31.66 0 15.767 15.893 31.644 31.648 31.644 23.934 0 39.61-15.877 39.61-31.643 0-15.987-15.676-31.661-39.61-31.661z m174.05 0c-15.646 0-31.43 15.674-31.43 31.66 0 15.767 15.784 31.644 31.43 31.644 23.716 0 39.606-15.877 39.606-31.643 0.001-15.987-15.89-31.661-39.605-31.661z"  horiz-adv-x="1024" />

    
    <glyph glyph-name="xiangshang" unicode="&#58971;" d="M854.016 156.672L540.672 465.92 227.328 156.672q-14.336-14.336-32.768-21.504T157.184 128t-36.864 7.168-32.256 21.504q-29.696 28.672-29.696 68.608t29.696 68.608l376.832 373.76q14.336 14.336 34.304 22.528t40.448 9.216 39.424-5.12 31.232-20.48L993.28 293.888q28.672-28.672 28.672-68.608t-28.672-68.608q-14.336-14.336-32.768-21.504T923.136 128t-36.864 7.168-32.256 21.504z"  horiz-adv-x="1024" />

    
    <glyph glyph-name="weixin1" unicode="&#58972;" d="M1024 259.968c0 141.888-141.867 257.43-301.461 257.43-169.088 0-301.867-115.542-301.867-257.43 0-142.25 132.779-257.387 301.867-257.387 35.37 0 71.146 9.024 106.496 17.643l97.45-53.419-26.666 88.79C970.923 109.035 1024 180.16 1024 259.968z m-399.381 44.416c-17.643 0-35.328 17.664-35.328 35.392 0 17.621 17.685 35.328 35.328 35.328 26.752 0 44.458-17.707 44.458-35.328 0-17.728-17.706-35.392-44.458-35.392z m195.392 0c-17.664 0-35.307 17.664-35.307 35.392 0 17.621 17.643 35.328 35.307 35.328 26.709 0 44.416-17.707 44.416-35.328 0-17.728-18.134-35.392-44.416-35.392zM693.248 548.757c11.627 0 23.296-0.81 34.901-2.005C696.875 692.885 540.757 801.216 362.475 801.216 163.37 801.216 0 665.557 0 492.971c0-99.563 54.208-181.419 144.917-244.864L108.8 138.965l126.827 63.787c45.354-8.81 81.877-18.07 126.848-18.07 11.221 0 22.506 0.406 33.749 1.558-7.232 24.128-11.243 49.75-11.243 75.883-0.021 158.186 136.086 286.634 308.267 286.634z m-195.115 98.347c27.286 0 45.334-18.07 45.334-45.376 0-27.264-18.07-45.333-45.334-45.333-27.306 0-54.57 18.069-54.57 45.333 0.405 27.328 27.648 45.376 54.57 45.376zM244.46 556.437c-27.307 0-54.571 18.048-54.571 45.334 0 27.306 27.285 45.354 54.57 45.354 27.329 0 45.398-18.069 45.398-45.354-0.021-26.902-18.07-45.334-45.397-45.334z"  horiz-adv-x="1024" />

    
    <glyph glyph-name="wenti" unicode="&#58973;" d="M513.2-61.3c-60.3 0-118.9 11.8-174 35.1-53.2 22.5-101 54.7-142.1 95.8-41 41-73.3 88.8-95.8 142.1-23.3 55.1-35.1 113.7-35.1 174s11.8 118.9 35.1 174c22.5 53.2 54.7 101 95.8 142.1 41 41 88.8 73.3 142.1 95.8 55.1 23.3 113.7 35.1 174 35.1s118.9-11.8 174-35.1c53.2-22.5 101-54.7 142.1-95.8 41-41 73.3-88.8 95.8-142.1 23.3-55.1 35.1-113.7 35.1-174s-11.8-118.9-35.1-174c-22.5-53.2-54.7-101-95.8-142.1-41-41-88.8-73.3-142.1-95.8-55.1-23.2-113.7-35.1-174-35.1z m0 830c-102.3 0-198.5-39.8-270.8-112.2C170 584.2 130.2 488 130.2 385.7S170 187.3 242.4 114.9c72.3-72.3 168.5-112.2 270.8-112.2S711.7 42.6 784 114.9c72.3 72.3 112.2 168.5 112.2 270.8 0 102.3-39.8 198.5-112.2 270.8-72.3 72.4-168.5 112.2-270.8 112.2zM350 478.2c1 34.6 5 60.8 12.2 78.8 7.2 18 18.7 34.1 34.6 48.2 15.8 14.2 33.5 24.6 52.9 31.3 19.4 6.7 40 10.1 61.6 10.1 43.7 0 80-12.8 109.1-38.5 29-25.7 43.6-59.9 43.6-102.6 0-19.2-3.7-36.6-11.2-52.2-7.4-15.6-23.3-35-47.5-58.3-24.2-23.3-40.3-39.8-48.2-49.7-7.9-9.8-13.9-21.6-18-35.3-4.1-13.7-5.9-32-5.4-55.1h-63.4c0 26.9 2.2 48.4 6.5 64.4 4.3 16.1 10.8 30.1 19.4 42.1 8.6 12 24.2 29.6 46.8 52.9 22.6 23.3 37.1 40.2 43.6 50.8 6.5 10.6 9.7 26.3 9.7 47.2 0 20.9-7.4 39.4-22.3 55.4-15 16.2-36.6 24.3-64.9 24.3-63.8 0-95.8-37.9-95.8-113.8H350z m188.6-355h-69.8v73.4h69.8v-73.4z"  horiz-adv-x="1024" />

    
    <glyph glyph-name="weixin" unicode="&#58974;" d="M816.551 647.833C697.803 764.499 553.294 798.33 394.437 755.473 114.717 680.005 28.163 389.01 169.48 199.352c6.853-9.198 8.148-26.164 5.545-38.097-7.6-34.868-18.714-68.959-28-103.475-4.966-18.455-7.905-37.212 8.632-52.02 17.778-15.921 36.826-12.654 56.258-2.777 31.88 16.201 64.336 31.314 95.763 48.337 20.47 11.087 38.848 11.659 61.943 5.24 46.063-12.8 93.718-19.872 117.993-24.748 144.317 2.603 249.61 41.736 333.958 129.489 134.31 139.731 133.331 350.607-5.02 486.53zM763.5 214.122c-104.634-103.85-232.003-128.685-369.716-82.494-45.409 15.23-82.687 19.208-122.09-7.494-3.576-2.423-8.447-2.934-26.512-8.852C281.452 178.2 254.6 217.555 224 262.176c-67.886 98.99-54.038 226.625 26.782 318.74 132.027 150.481 390.603 150.383 522.634-0.196 95.728-109.175 93.683-263.774-9.917-366.598z m-123.17 304.446c-26.245 0.962-47.457-18.595-48.955-45.14-1.533-27.156 16.637-48.23 43.304-50.227 26.571-1.99 48.85 16.263 51.569 42.247 2.866 27.407-18.489 52.113-45.917 53.12z m-255.107 0.045c-27.758-0.206-48.888-23.685-46.822-52.024 1.94-26.61 23.155-44.91 50.213-43.318 26.505 1.561 46.149 22.887 45.152 49.02-0.967 25.364-23.129 46.51-48.543 46.322z"  horiz-adv-x="1024" />

    
    <glyph glyph-name="xiangzuo" unicode="&#58975;" d="M572.612459-102.778481a85.26333 85.26333 0 0 1 0 121.073289L291.24307 298.811485h817.676056a85.26333 85.26333 0 0 1 0 170.52666H291.24307L572.612459 749.854821A85.26333 85.26333 0 0 1 451.53817 870.92911L25.221519 444.612459a85.26333 85.26333 0 0 1 0-121.074289l426.316651-426.316651a85.26333 85.26333 0 0 1 121.074289 0z"  horiz-adv-x="1194" />

    
    <glyph glyph-name="xiazai5" unicode="&#58976;" d="M502.01 130.06a19.307 19.307 0 0 1 13.597-5.574c0.076 0 0.152 0.01 0.227 0.012 0.33-0.017 0.655-0.05 0.989-0.05 0.706 0 1.4 0.043 2.087 0.116a19.284 19.284 0 0 1 11.962 5.496l335.054 330.167c7.62 7.51 7.71 19.773 0.2 27.394s-19.774 7.712-27.395 0.202L536.193 189.696V845.98c0 10.698-8.673 19.371-19.371 19.371s-19.371-8.673-19.371-19.371v-657.032L190.569 491.397c-7.618 7.509-19.884 7.42-27.394-0.2-7.509-7.62-7.42-19.884 0.2-27.393L502.01 130.06zM867.17 184.98c-10.699 0-19.371-8.673-19.371-19.372v-165.42c0-13.054-10.62-23.675-23.676-23.675h-618.94c-13.055 0-23.677 10.621-23.677 23.676V165.608c0 10.699-8.673 19.371-19.371 19.371s-19.372-8.672-19.372-19.371v-165.42c0-34.416 28.001-62.416 62.418-62.416h618.942c34.418 0 62.417 28 62.417 62.417V165.608c0.001 10.699-8.671 19.371-19.37 19.371z"  horiz-adv-x="1024" />

    
    <glyph glyph-name="xiangxia" unicode="&#58977;" d="M512.214-12.723c26.782 0 48.492 21.711 48.492 48.493V783.405c0 26.782-21.71 48.492-48.492 48.492-26.782 0-48.493-21.71-48.493-48.492V35.77c0-26.782 21.71-48.493 48.493-48.493z m-34.415-35.775c18.937-18.938 48.555-20.024 66.153-2.427l357.195 357.196c17.598 17.597 16.511 47.214-2.426 66.152-18.938 18.938-48.555 20.024-66.153 2.427L475.374 17.654c-17.599-17.597-16.512-47.215 2.425-66.152z m68.821 0c18.938 18.937 20.025 48.555 2.427 66.152L191.85 374.85c-17.597 17.597-47.214 16.51-66.152-2.427-18.937-18.937-20.024-48.555-2.426-66.152l357.195-357.196c17.598-17.597 47.215-16.51 66.152 2.427z"  horiz-adv-x="1024" />

    
    <glyph glyph-name="xiaolian" unicode="&#58978;" d="M675.328 778.283A425.43 425.43 0 0 1 512 810.667C276.352 810.667 85.333 619.648 85.333 384S276.352-42.667 512-42.667 938.667 148.352 938.667 384c0 56.747-11.094 112-32.384 163.328a21.333 21.333 0 0 1-39.403-16.341A382.763 382.763 0 0 0 896 384c0-212.075-171.925-384-384-384S128 171.925 128 384s171.925 384 384 384c51.115 0 100.8-9.984 146.987-29.12a21.333 21.333 0 0 1 16.341 39.403z m48.384-532.928A234.539 234.539 0 0 0 520.405 128a234.539 234.539 0 0 0-203.264 117.333A21.333 21.333 0 0 1 280.192 224a277.184 277.184 0 0 1 240.213-138.667c100.16 0 190.998 53.547 240.214 138.667a21.333 21.333 0 0 1-36.907 21.333zM341.333 469.376C341.333 492.928 360.277 512 384 512c23.573 0 42.667-19.157 42.667-42.624v-42.752A42.539 42.539 0 0 0 384 384c-23.573 0-42.667 19.157-42.667 42.624v42.752z m256 0C597.333 492.928 616.277 512 640 512c23.573 0 42.667-19.157 42.667-42.624v-42.752A42.539 42.539 0 0 0 640 384c-23.573 0-42.667 19.157-42.667 42.624v42.752z"  horiz-adv-x="1024" />

    


  </font>
</defs>
</svg>
